<?xml version="1.0" standalone="no"?>
<!DOCTYPE svg PUBLIC "-//W3C//DTD SVG 1.1//EN" "http://www.w3.org/Graphics/SVG/1.1/DTD/svg11.dtd" >
<svg>
<metadata>
Created by FontForge 20090622 at Fri May 22 13:47:37 2015
 By deploy user
Champion Gothic  Copr. The Hoefler Type Foundry, 1990
</metadata>
<defs>
<font id="Champion-HTF-Featherweight" horiz-adv-x="167" >
  <font-face 
    font-family="Champion"
    font-weight="500"
    font-stretch="normal"
    units-per-em="1000"
    panose-1="2 0 6 6 4 0 0 2 0 4"
    ascent="800"
    descent="-200"
    x-height="590"
    cap-height="800"
    bbox="-71 -338 1012 1010"
    underline-thickness="20"
    underline-position="-113"
    unicode-range="U+0020-U+FB02"
  />
<missing-glyph horiz-adv-x="500" 
 />
    <glyph glyph-name=".notdef" horiz-adv-x="500" 
 />
    <glyph glyph-name=".null" horiz-adv-x="0" 
 />
    <glyph glyph-name="nonmarkingreturn" horiz-adv-x="130" 
 />
    <glyph glyph-name="space" unicode=" " horiz-adv-x="130" 
 />
    <glyph glyph-name="space" unicode="&#xa0;" horiz-adv-x="130" 
 />
    <glyph glyph-name="numbersign" unicode="#" horiz-adv-x="585" 
d="M462 494l-22 -188h82v-122h-97l-21 -184h-113l21 184h-90l-21 -184h-114l22 184h-82v122h96l22 188h-82v122h97l21 184h114l-22 -184h90l21 184h114l-22 -184h82v-122h-96zM259 494l-22 -188h89l23 188h-90z" />
    <glyph glyph-name="dollar" unicode="$" horiz-adv-x="320" 
d="M308 175q0 -67 -28.5 -117t-82.5 -64v-57h-86v60q-49 14 -77.5 52t-28.5 88v117h113v-105q0 -17 10 -30t28 -13q17 0 25.5 11.5t8.5 31.5q0 28 -7.5 55t-20 54t-28 55l-31.5 57q-17 31 -32.5 63t-28.5 64.5t-20.5 65t-7.5 63.5q0 69 26.5 117t80.5 62v59h86v-60
q45 -14 71.5 -52.5t26.5 -88.5v-117h-113v112q0 18 -8 27t-20 9t-22 -9t-10 -27q0 -30 5 -57t15 -54t24.5 -56.5l33.5 -65.5l34.5 -64.5t31.5 -64t23 -62t9 -59.5z" />
    <glyph glyph-name="percent" unicode="%" horiz-adv-x="726" 
d="M703 127q0 -29 -10.5 -53.5t-29.5 -43.5t-44 -29.5t-53 -10.5q-29 0 -53.5 10.5t-43.5 29.5t-29.5 43.5t-10.5 53.5v202q0 28 10.5 53t29.5 44t43.5 29.5t53.5 10.5q28 0 53 -10.5t44 -29.5t29.5 -44t10.5 -53v-202v0zM211 0h-82l386 800h82zM297 471q0 -29 -10.5 -53.5
t-29.5 -43.5t-44 -29.5t-53 -10.5q-29 0 -53.5 10.5t-43.5 29.5t-29.5 43.5t-10.5 53.5v202q0 28 10.5 53t29.5 44t43.5 29.5t53.5 10.5q28 0 53 -10.5t44 -29.5t29.5 -44t10.5 -53v-202v0zM590 342q0 10 -7 17t-17 7t-17 -7t-7 -17v-228q0 -10 7 -17t17 -7t17 7t7 17v228z
M184 686q0 10 -7 17t-17 7t-17 -7t-7 -17v-228q0 -10 7 -17t17 -7t17 7t7 17v228z" />
    <glyph glyph-name="ampersand" unicode="&#x26;" horiz-adv-x="521" 
d="M505 147q0 -41 -9.5 -70.5t-25.5 -48.5t-38 -28.5t-47 -9.5q-22 0 -52.5 11.5t-48.5 30.5q-22 -20 -48.5 -31t-60.5 -11q-32 0 -61.5 13.5t-52.5 40t-37 65t-14 88.5q0 31 10.5 64t28 64t39 57.5t42.5 45.5q-9 24 -18.5 46.5t-18 45.5t-13.5 47t-5 50q0 48 16 84t41 60.5
t55.5 36.5t60.5 12t56.5 -12.5t45.5 -34t30 -50.5t11 -62q0 -71 -36.5 -130t-93.5 -110q8 -35 19 -71.5t23 -68.5q13 28 19.5 63t6.5 69h119q-1 -32 -7.5 -67t-18.5 -70t-28.5 -68.5t-37.5 -62.5q4 -11 10.5 -17.5t18.5 -6.5q27 0 27 46v35h93v-45v0zM270 654q0 19 -10 28.5
t-23 9.5q-15 0 -26.5 -13.5t-11.5 -36.5q0 -29 6 -55t19 -57q28 29 37 60.5t9 63.5zM228 130q-19 38 -33.5 80t-24.5 87q-14 -17 -25 -47.5t-11 -57.5q0 -37 15 -59t44 -22q22 0 35 19z" />
    <glyph glyph-name="quotesingle" unicode="'" 
d="M56 588h-35l49 91h-43v121h113v-121z" />
    <glyph glyph-name="parenleft" unicode="(" horiz-adv-x="247" 
d="M212 -275q-42 42 -77 102t-60 134.5t-38.5 160t-13.5 178.5t13.5 178.5t38.5 160t60 134.5t77 102l34 -40q-25 -39 -45.5 -95t-35 -125t-22.5 -148.5t-8 -166.5t8 -166.5t22.5 -148.5t35 -125t45.5 -95z" />
    <glyph glyph-name="parenright" unicode=")" horiz-adv-x="247" 
d="M224 300q0 -93 -13.5 -178.5t-38.5 -160t-60 -134.5t-77 -102l-34 40q25 39 45.5 95t35 125t22.5 148.5t8 166.5t-8 166.5t-22.5 148.5t-35 125t-45.5 95l34 40q42 -42 77 -102t60 -134.5t38.5 -160t13.5 -178.5z" />
    <glyph glyph-name="asterisk" unicode="*" horiz-adv-x="426" 
d="M364 449l-77 45l-37 37l14 -51v-89h-103v89l14 51l-36 -38l-78 -45l-51 89l77 45l51 13l-51 14l-77 45l51 89l78 -45l36 -38l-14 51v89h103v-89l-14 -51l37 37l77 45l52 -89l-78 -45l-51 -13l51 -12l78 -45z" />
    <glyph glyph-name="plus" unicode="+" horiz-adv-x="371" 
d="M247 300v-118h-122v118h-98v122h98v118h122v-118h97v-122h-97z" />
    <glyph glyph-name="comma" unicode="," 
d="M55 -90h-34l49 90h-43v121h113v-121z" />
    <glyph glyph-name="hyphen" unicode="-" horiz-adv-x="229" 
d="M27 300v122h175v-122h-175z" />
    <glyph glyph-name="period" unicode="." 
d="M27 0v121h113v-121h-113z" />
    <glyph glyph-name="slash" unicode="/" horiz-adv-x="371" 
d="M148 0h-123l223 800h123z" />
    <glyph glyph-name="zero" unicode="0" horiz-adv-x="340" 
d="M317 137q0 -30 -11.5 -57t-31.5 -47t-47 -31.5t-57 -11.5t-57 11.5t-47 31.5t-31.5 47t-11.5 57v526q0 30 11.5 57t31.5 47t47 31.5t57 11.5t57 -11.5t47 -31.5t31.5 -47t11.5 -57v-526v0zM194 660q0 10 -7 17t-17 7t-17 -7t-7 -17v-520q0 -10 7 -17t17 -7t17 7t7 17v520
z" />
    <glyph glyph-name="one" unicode="1" horiz-adv-x="282" 
d="M92 0v605h-82v77q48 8 79 39t39 79h87v-800h-123z" />
    <glyph glyph-name="two" unicode="2" horiz-adv-x="332" 
d="M314 625q0 -31 -9 -66.5t-23 -72.5t-30.5 -73l-30.5 -67l-24 -54.5t-20 -51.5t-16 -54.5t-12 -63.5h148v-122h-283q0 97 27.5 197.5t72.5 190.5q21 42 36 76t25.5 65.5t15.5 62t5 66.5q0 18 -9.5 27t-21.5 9t-22.5 -9t-10.5 -27v-112h-113v117q0 30 11 57t30 47t45 31.5
t56 11.5q37 0 65.5 -13.5t48 -38t29.5 -58.5t10 -75z" />
    <glyph glyph-name="three" unicode="3" horiz-adv-x="321" 
d="M302 137q0 -30 -11 -57t-30 -47t-45 -31.5t-57 -11.5q-30 0 -56 11.5t-45 31.5t-30 47t-11 57v83h118v-80q0 -10 7 -17t17 -7q11 0 17.5 7t6.5 17v185q0 11 -6.5 17.5t-17.5 6.5h-53v112h53q11 0 17.5 7t6.5 17v175q0 10 -6.5 17t-17.5 7q-10 0 -17 -7t-7 -17v-80h-118
v83q0 30 11 57t30 47t45 31.5t56 11.5q31 0 57 -11.5t45 -31.5t30 -47t11 -57v-182q0 -24 -11 -45.5t-37 -31.5q26 -9 37 -30.5t11 -45.5v-191v0z" />
    <glyph glyph-name="four" unicode="4" horiz-adv-x="338" 
d="M289 148v-148h-113v148h-163v96l176 556h100v-541h36v-111h-36zM176 411l-45 -152h45v152z" />
    <glyph glyph-name="five" unicode="5" horiz-adv-x="330" 
d="M311 800q0 -59 -18 -85.5t-36 -26.5h-106l-9 -195q33 25 69 25q42 0 69 -28.5t27 -70.5v-282q0 -30 -11 -57t-30 -47t-45 -31.5t-56 -11.5t-56 11.5t-45 31.5t-30 47t-11 57v83h118v-80q0 -10 7 -17t17 -7t17 7t7 17v248q0 10 -7 17t-17 7t-17 -7t-7 -17l-118 6l19 406
h269v0z" />
    <glyph glyph-name="six" unicode="6" horiz-adv-x="330" 
d="M307 137q0 -30 -10.5 -57t-29.5 -47t-45 -31.5t-57 -11.5q-30 0 -56 11.5t-45 31.5t-30 47t-11 57v526q0 30 11 57t30 47t45 31.5t56 11.5q31 0 57 -11.5t45 -31.5t29.5 -47t10.5 -57v-83h-118v80q0 10 -6.5 17t-17.5 7q-10 0 -17 -7t-7 -17v-187q13 11 32 18t38 7
q42 0 69 -29t27 -71v-261v0zM189 368q0 10 -6.5 17t-17.5 7q-10 0 -17 -7t-7 -17v-228q0 -10 7 -17t17 -7q11 0 17.5 7t6.5 17v228z" />
    <glyph glyph-name="seven" unicode="7" horiz-adv-x="303" 
d="M149 0h-123l129 678h-129v122h269z" />
    <glyph glyph-name="eight" unicode="8" horiz-adv-x="330" 
d="M307 137q0 -30 -11 -57t-30 -47t-45 -31.5t-56 -11.5t-56 11.5t-45 31.5t-30 47t-11 57v180q0 25 15.5 51.5t42.5 35.5q-27 10 -42.5 36.5t-15.5 50.5v172q0 30 11 57t30 47t45 31.5t56 11.5t56 -11.5t45 -31.5t30 -47t11 -57v-172q0 -24 -16 -50.5t-42 -36.5
q26 -9 42 -35.5t16 -51.5v-180v0zM189 660q0 10 -7 17t-17 7t-17 -7t-7 -17v-183q0 -10 7 -17t17 -7t17 7t7 17v183zM189 333q0 11 -7 17.5t-17 6.5t-17 -6.5t-7 -17.5v-193q0 -10 7 -17t17 -7t17 7t7 17v193z" />
    <glyph glyph-name="nine" unicode="9" horiz-adv-x="330" 
d="M307 137q0 -30 -10.5 -57t-29.5 -47t-45 -31.5t-57 -11.5q-30 0 -56 11.5t-45 31.5t-30 47t-11 57v83h118v-80q0 -10 7 -17t17 -7q11 0 17.5 7t6.5 17v187q-12 -11 -31 -18t-39 -7q-42 0 -69 29t-27 71v261q0 30 11 57t30 47t45 31.5t56 11.5q31 0 57 -11.5t45 -31.5
t29.5 -47t10.5 -57v-526v0zM189 660q0 10 -6.5 17t-17.5 7q-10 0 -17 -7t-7 -17v-228q0 -10 7 -17t17 -7q11 0 17.5 7t6.5 17v228z" />
    <glyph glyph-name="colon" unicode=":" 
d="M27 350v122h113v-122h-113zM27 0v121h113v-121h-113z" />
    <glyph glyph-name="semicolon" unicode=";" 
d="M27 350v122h113v-122h-113zM56 -90h-35l49 90h-43v121h113v-121z" />
    <glyph glyph-name="less" unicode="&#x3c;" horiz-adv-x="338" 
d="M225 51l-210 325l210 326l98 -73l-160 -253l160 -252z" />
    <glyph glyph-name="equal" unicode="=" horiz-adv-x="331" 
d="M27 402v122h277v-122h-277zM27 199v122h277v-122h-277z" />
    <glyph glyph-name="greater" unicode="&#x3e;" horiz-adv-x="338" 
d="M113 51l-98 73l160 252l-160 253l98 73l210 -326z" />
    <glyph glyph-name="question" unicode="?" horiz-adv-x="325" 
d="M309 625q0 -39 -8 -70.5t-20 -59t-26 -53.5t-26 -54t-20 -60t-8 -71q0 -16 4.5 -35.5t9.5 -36.5h-113q-6 21 -11 43.5t-5 42.5q0 44 8 76t19.5 59t25 51.5t25 53t19.5 64t8 83.5q0 18 -10.5 27t-22.5 9t-19.5 -9t-7.5 -27v-112h-113v117q0 30 10.5 57t29 47t44.5 31.5
t56 11.5q75 0 113 -51.5t38 -133.5zM102 0v121h113v-121h-113z" />
    <glyph glyph-name="at" unicode="@" horiz-adv-x="815" 
d="M785 464q0 -68 -19 -120t-51.5 -87t-74.5 -52.5t-87 -17.5q-30 0 -51.5 5.5t-35.5 15t-22 21t-12 23.5q-8 -15 -20.5 -25.5t-27 -18t-28.5 -11t-25 -3.5q-38 0 -60 26t-16 64l35 233q6 37 36 63t67 26q22 0 39 -9.5t27 -26.5l4 26h113l-39 -256q-5 -33 6.5 -49t34.5 -16
q22 0 42 12t35 35.5t24 58t9 80.5q0 45 -20 90t-56 81t-85.5 58.5t-107.5 22.5t-109.5 -24.5t-89.5 -67t-60.5 -99.5t-22.5 -122q0 -66 21.5 -123t59.5 -99.5t89.5 -66.5t111.5 -24q51 0 96.5 13.5t84.5 38.5l48 -71q-48 -37 -106 -57.5t-123 -20.5q-81 0 -151.5 32.5
t-123.5 88t-83.5 130t-30.5 159.5t30.5 160t83.5 130.5t123.5 87.5t151.5 32q77 0 143.5 -29t116 -77t78 -110.5t28.5 -129.5zM446 481q2 11 -4 17.5t-16 6.5q-11 0 -18.5 -6.5t-9.5 -17.5l-25 -162q-2 -11 4 -17.5t16 -6.5q11 0 18.5 6.5t9.5 17.5l25 162v0z" />
    <glyph glyph-name="A" unicode="A" horiz-adv-x="319" 
d="M189 0l-7 135h-56l-11 -135h-111l81 800h147l83 -800h-126zM159 530l-23 -273h39z" />
    <glyph glyph-name="B" unicode="B" horiz-adv-x="328" 
d="M309 136q0 -38 -12 -64t-31 -42t-42.5 -23t-45.5 -7h-151v800h151q22 0 45.5 -7t42.5 -23t31 -42t12 -64v-174q0 -29 -14.5 -48t-37.5 -35q23 -16 37.5 -35t14.5 -48v-188v0zM189 646q0 32 -21 32h-18v-213h18q21 0 21 32v149zM189 312q0 32 -21 32h-18v-223h18
q21 0 21 32v159z" />
    <glyph glyph-name="C" unicode="C" horiz-adv-x="324" 
d="M307 137q0 -30 -11 -57t-30 -47t-45 -31.5t-56 -11.5t-56 11.5t-45 31.5t-30 47t-11 57v526q0 30 11 57t30 47t45 31.5t56 11.5t56 -11.5t45 -31.5t30 -47t11 -57v-164h-118v161q0 10 -7 17t-17 7t-17 -7t-7 -17v-520q0 -10 7 -17t17 -7t17 7t7 17v161h118v-164v0z" />
    <glyph glyph-name="D" unicode="D" horiz-adv-x="337" 
d="M314 136q0 -38 -11.5 -64t-29.5 -42t-40.5 -23t-44.5 -7h-161v800h161q22 0 44.5 -7t40.5 -23t29.5 -42t11.5 -64v-528v0zM199 646q0 32 -22 32h-27v-557h27q22 0 22 32v493z" />
    <glyph glyph-name="E" unicode="E" horiz-adv-x="288" 
d="M27 0v800h243v-112h-119v-212h78v-122h-78v-232h119v-122h-243z" />
    <glyph glyph-name="F" unicode="F" horiz-adv-x="288" 
d="M151 688v-228h88v-116h-88v-344h-124v800h243v-112h-119z" />
    <glyph glyph-name="G" unicode="G" horiz-adv-x="332" 
d="M240 0l-10 16q-31 -26 -79 -26q-59 0 -93.5 39.5t-34.5 107.5v526q0 30 11 57t30 47t45 31.5t56 11.5t56 -11.5t45 -31.5t30 -47t11 -57v-174h-118v171q0 10 -7 17t-17 7t-17 -7t-7 -17v-530q0 -10 7 -17t17 -7t17 7t7 17v155h-24v106h147v-391h-72z" />
    <glyph glyph-name="H" unicode="H" horiz-adv-x="348" 
d="M198 0v334h-48v-334h-123v800h123v-345h48v345h123v-800h-123z" />
    <glyph glyph-name="I" unicode="I" horiz-adv-x="183" 
d="M30 0v800h123v-800h-123z" />
    <glyph glyph-name="J" unicode="J" horiz-adv-x="325" 
d="M300 137q0 -30 -11 -57t-30 -47t-45 -31.5t-57 -11.5q-30 0 -56 11.5t-45 31.5t-30 47t-11 57v189h118v-191q0 -10 7 -17t17 -7q11 0 17.5 7t6.5 17v665h119v-663v0z" />
    <glyph glyph-name="K" unicode="K" horiz-adv-x="338" 
d="M225 0l-50 277l-25 -102v-175h-123v800h123v-351l67 351h118l-79 -367l92 -433h-123z" />
    <glyph glyph-name="L" unicode="L" horiz-adv-x="285" 
d="M27 0v800h123v-678h120v-122h-243z" />
    <glyph glyph-name="M" unicode="M" horiz-adv-x="523" 
d="M373 0v540l-81 -540h-81l-73 540v-540h-111v800h192l45 -375l48 375h184v-800h-123z" />
    <glyph glyph-name="N" unicode="N" horiz-adv-x="369" 
d="M218 0l-88 427v-427h-103v800h143l69 -434v434h103v-800h-124z" />
    <glyph glyph-name="O" unicode="O" horiz-adv-x="340" 
d="M317 137q0 -30 -11.5 -57t-31.5 -47t-47 -31.5t-57 -11.5t-57 11.5t-47 31.5t-31.5 47t-11.5 57v526q0 30 11.5 57t31.5 47t47 31.5t57 11.5t57 -11.5t47 -31.5t31.5 -47t11.5 -57v-526v0zM194 660q0 10 -7 17t-17 7t-17 -7t-7 -17v-520q0 -10 7 -17t17 -7t17 7t7 17v520
z" />
    <glyph glyph-name="P" unicode="P" horiz-adv-x="325" 
d="M310 460q0 -38 -12.5 -64t-31.5 -42t-42.5 -23t-45.5 -7h-28v-324h-123v800h151q22 0 45.5 -7t42.5 -23t31.5 -42t12.5 -64v-204v0zM189 646q0 32 -21 32h-18v-233h18q21 0 21 32v169z" />
    <glyph glyph-name="Q" unicode="Q" horiz-adv-x="340" 
d="M317 137q0 -26 -8.5 -49.5t-23.5 -42.5t-36 -32t-45 -19q-7 -19 -7 -40q0 -32 19 -32q11 0 15 10t4 21q0 6 -1.5 13t-3.5 11h49q3 -8 6.5 -20.5t3.5 -26.5q0 -35 -21.5 -57t-63.5 -22q-45 0 -67 23t-22 65q0 16 4 31.5t9 25.5q-46 14 -75.5 52t-29.5 89v526q0 30 11.5 57
t31.5 47t47 31.5t57 11.5t57 -11.5t47 -31.5t31.5 -47t11.5 -57v-526v0zM194 659q0 11 -7 17.5t-17 6.5t-17 -6.5t-7 -17.5v-519q0 -10 7 -17t17 -7t17 7t7 17v519z" />
    <glyph glyph-name="R" unicode="R" horiz-adv-x="330" 
d="M207 0q-7 26 -11 59t-4 65v178q0 14 -6.5 23t-19.5 9h-16v-334h-123v800h151q22 0 45.5 -7t42.5 -23t31.5 -42t12.5 -64v-194q0 -29 -14.5 -48t-38.5 -35q24 -16 39.5 -35t15.5 -48v-170q0 -38 5 -71.5t11 -62.5h-121zM189 646q0 32 -21 32h-18v-233h18q21 0 21 32v169z
" />
    <glyph glyph-name="S" unicode="S" horiz-adv-x="320" 
d="M309 175q0 -38 -10 -72t-28.5 -59t-46 -39.5t-62.5 -14.5t-64 11.5t-49.5 31.5t-31.5 47t-11 57v117h113v-105q0 -17 9.5 -30t27.5 -13q35 0 35 43q0 28 -7.5 55t-20 54t-28.5 55l-32 57q-17 31 -32.5 63t-28.5 64.5t-20.5 64.5t-7.5 63q0 41 9.5 75t28.5 58.5t47.5 38
t65.5 13.5q30 0 56 -11.5t44.5 -31.5t29 -47t10.5 -57v-117h-113v112q0 18 -7.5 27t-19.5 9t-22.5 -9t-10.5 -27q0 -30 5 -57t15 -54t24.5 -56.5l33.5 -65.5l34.5 -64.5t32 -64t23.5 -62t9 -59.5z" />
    <glyph glyph-name="T" unicode="T" horiz-adv-x="296" 
d="M212 678v-678h-123v678h-82v122h282v-122h-77z" />
    <glyph glyph-name="U" unicode="U" horiz-adv-x="329" 
d="M304 137q0 -30 -10 -57t-28 -47t-43 -31.5t-56 -11.5q-30 0 -56 11.5t-45 31.5t-30 47t-11 57v663h118v-660q0 -10 7 -17t17 -7q11 0 17.5 7t6.5 17v660h113v-663v0z" />
    <glyph glyph-name="V" unicode="V" horiz-adv-x="312" 
d="M214 0h-114l-100 800h122l38 -467l43 467h112z" />
    <glyph glyph-name="W" unicode="W" horiz-adv-x="469" 
d="M375 0h-99l-38 358l-38 -358h-104l-96 800h122l38 -411l37 411h82l36 -411l44 411h111z" />
    <glyph glyph-name="X" unicode="X" horiz-adv-x="328" 
d="M229 421l87 -421h-118l-38 211l-43 -211h-113l93 401l-87 399h119l36 -211l42 211h113z" />
    <glyph glyph-name="Y" unicode="Y" horiz-adv-x="324" 
d="M224 355v-355h-119v355l-99 445h119l46 -257l42 257h113z" />
    <glyph glyph-name="Z" unicode="Z" horiz-adv-x="264" 
d="M131 122h119v-122h-252l123 678h-103v122h237z" />
    <glyph glyph-name="bracketleft" unicode="[" horiz-adv-x="274" 
d="M47 -275v1150h242v-111h-119v-927h119v-112h-242z" />
    <glyph glyph-name="backslash" unicode="\" horiz-adv-x="371" 
d="M223 0l-223 800h123l223 -800h-123z" />
    <glyph glyph-name="bracketright" unicode="]" horiz-adv-x="274" 
d="M-15 -275v112h119v927h-119v111h242v-1150h-242z" />
    <glyph glyph-name="asciicircum" unicode="^" horiz-adv-x="338" 
d="M230 658l-61 69l-61 -69h-93l98 142h113l97 -142h-93z" />
    <glyph glyph-name="underscore" unicode="_" horiz-adv-x="527" 
d="M27 0v122h473v-122h-473z" />
    <glyph glyph-name="grave" unicode="`" horiz-adv-x="200" 
d="M95 658l-61 142h113l20 -142h-72z" />
    <glyph glyph-name="a" unicode="a" horiz-adv-x="314" 
d="M214 0l-6 33q-10 -20 -31 -31.5t-47 -11.5q-27 0 -49 10.5t-38 28.5t-24.5 43t-8.5 55v43q0 31 12.5 57t34.5 49t52 45.5l65 46.5v108q0 10 -4.5 17t-14.5 7q-11 0 -15 -7t-4 -17v-71h-113v58q0 28 10.5 53.5t29.5 44t43.5 29.5t53.5 11q28 0 51.5 -11t40 -29.5t26 -44
t9.5 -53.5v-341q0 -19 4.5 -55t15.5 -67h-93zM174 265q-23 -18 -35.5 -32t-12.5 -40v-74q0 -12 5.5 -20.5t18.5 -8.5q12 0 18 8.5t6 20.5v146z" />
    <glyph glyph-name="b" unicode="b" horiz-adv-x="327" 
d="M302 79q0 -37 -26 -63t-64 -26q-22 0 -40.5 9.5t-30.5 26.5l-6 -26h-108v800h114v-236q12 17 30.5 27t40.5 10q38 0 64 -26t26 -64v-432v0zM188 476q0 10 -6.5 17t-17.5 7q-10 0 -16.5 -7t-6.5 -17v-362q0 -10 6.5 -17t16.5 -7q11 0 17.5 7t6.5 17v362z" />
    <glyph glyph-name="c" unicode="c" horiz-adv-x="317" 
d="M297 127q0 -29 -11 -53.5t-29.5 -43.5t-43.5 -29.5t-53 -10.5q-29 0 -53.5 10.5t-43.5 29.5t-29.5 43.5t-10.5 53.5v336q0 28 10.5 53.5t29.5 44t43.5 29.5t53.5 11q28 0 53 -11t43.5 -29.5t29.5 -44t11 -53.5v-89h-113v102q0 10 -7 17t-17 7q-11 0 -17.5 -7t-6.5 -17
v-362q0 -10 6.5 -17t17.5 -7q10 0 17 7t7 17v102h113v-89v0z" />
    <glyph glyph-name="d" unicode="d" horiz-adv-x="326" 
d="M191 0l-5 26q-13 -17 -31.5 -26.5t-40.5 -9.5q-37 0 -63 26t-26 63v432q0 38 26 64t63 26q22 0 40.5 -10t31.5 -27v236h113v-800h-108zM186 476q0 10 -7 17t-17 7t-17 -7t-7 -17v-362q0 -10 7 -17t17 -7t17 7t7 17v362z" />
    <glyph glyph-name="e" unicode="e" horiz-adv-x="324" 
d="M299 127q0 -29 -10.5 -53.5t-29.5 -43.5t-44 -29.5t-53 -10.5q-29 0 -53.5 10.5t-43.5 29.5t-29.5 43.5t-10.5 53.5v336q0 28 10.5 53.5t29.5 44t43.5 29.5t53.5 11q28 0 53 -11t44 -29.5t29.5 -44t10.5 -53.5v-190h-161v-159q0 -10 7 -17t17 -7t17 7t7 17v102h113v-89v0
zM186 476q0 10 -7 17t-17 7t-17 -7t-7 -17v-129h48v129z" />
    <glyph glyph-name="f" unicode="f" horiz-adv-x="202" 
d="M154 486v-486h-113v486h-36v104h36v100q0 48 31 79t78 31h52v-115h-24q-10 0 -17 -6.5t-7 -17.5v-71h48v-104h-48z" />
    <glyph glyph-name="g" unicode="g" horiz-adv-x="322" 
d="M341 604q0 -35 -14 -52t-34 -17q-5 0 -9.5 1t-9.5 3q23 -34 23 -76v-136q0 -28 -10.5 -54t-29.5 -45.5t-44 -31t-53 -11.5h-13q-20 -13 -20 -39q0 -14 11.5 -27t23.5 -13q66 0 105.5 -34t39.5 -91v-64q0 -66 -40 -101.5t-107 -35.5q-30 0 -56.5 9t-46 26t-30.5 43t-11 59
v52q0 23 11.5 46.5t28.5 35.5q-20 8 -33.5 28t-13.5 42q0 32 24 55.5t56 27.5q-19 6 -31.5 18t-20 28t-11 34.5t-3.5 37.5v141q0 28 10.5 53.5t29.5 44t43.5 29.5t53.5 11q9 0 22 -2t18 -2q32 0 41.5 12t9.5 32h87q3 -20 3 -37zM184 476q0 10 -7 17t-17 7t-17 -7t-7 -17
v-167q0 -10 7 -17t17 -7t17 7t7 17v167zM199 -23q0 11 -8 20.5t-25 9.5q-19 0 -26 -9.5t-7 -20.5v-68q0 -11 8 -20.5t25 -9.5q15 0 24 9.5t9 20.5v68z" />
    <glyph glyph-name="h" unicode="h" horiz-adv-x="327" 
d="M188 0v476q0 10 -6.5 17t-17.5 7q-10 0 -16.5 -7t-6.5 -17v-476h-114v800h114v-236q12 17 30.5 27t40.5 10q38 0 64 -26t26 -64v-511h-114z" />
    <glyph glyph-name="i" unicode="i" 
d="M27 667v133h113v-133h-113zM27 0v590h113v-590h-113z" />
    <glyph glyph-name="j" unicode="j" 
d="M27 667v133h113v-133h-113zM140 -100q0 -48 -31 -79t-78 -31h-52v115h24q10 0 17 6.5t7 17.5v661h113v-690v0z" />
    <glyph glyph-name="k" unicode="k" horiz-adv-x="308" 
d="M205 0l-51 211l-13 -43v-168h-114v800h114v-429l54 220h113l-75 -249l85 -342h-113z" />
    <glyph glyph-name="l" unicode="l" 
d="M27 0v800h113v-800h-113z" />
    <glyph glyph-name="m" unicode="m" horiz-adv-x="487" 
d="M349 0v471q0 10 -6.5 17t-17.5 7q-10 0 -17 -7t-7 -17v-471h-113v476q0 10 -6.5 17t-17.5 7q-10 0 -17 -7t-7 -17v-476h-113v590h108l5 -26q13 17 31.5 27t40.5 10q30 0 50 -15.5t31 -34.5q12 22 33 36t47 14q37 0 63 -26t26 -64v-511h-113z" />
    <glyph glyph-name="n" unicode="n" horiz-adv-x="326" 
d="M188 0v476q0 10 -7 17t-17 7t-17 -7t-7 -17v-476h-113v590h108l5 -26q12 17 30.5 27t41.5 10q37 0 63 -26t26 -64v-511h-113z" />
    <glyph glyph-name="o" unicode="o" horiz-adv-x="320" 
d="M297 127q0 -29 -10.5 -53.5t-29.5 -43.5t-44 -29.5t-53 -10.5t-53 10.5t-43.5 29.5t-29.5 43.5t-11 53.5v336q0 28 11 53.5t29.5 44t43.5 29.5t53 11t53 -11t44 -29.5t29.5 -44t10.5 -53.5v-336v0zM184 476q0 10 -6.5 17t-17.5 7q-10 0 -17 -7t-7 -17v-362q0 -10 7 -17
t17 -7q11 0 17.5 7t6.5 17v362z" />
    <glyph glyph-name="p" unicode="p" horiz-adv-x="326" 
d="M301 80q0 -38 -25.5 -64t-63.5 -26q-22 0 -40.5 9.5t-31.5 26.5v-235h-113v800h108l5 -26q13 17 31.5 26.5t40.5 9.5q38 0 63.5 -26t25.5 -63v-432v0zM188 477q0 10 -6.5 17t-17.5 7q-10 0 -17 -7t-7 -17v-362q0 -11 7 -17.5t17 -6.5q11 0 17.5 6.5t6.5 17.5v362z" />
    <glyph glyph-name="q" unicode="q" horiz-adv-x="326" 
d="M186 -210v236q-13 -17 -31.5 -26.5t-40.5 -9.5q-37 0 -63 26t-26 63v432q0 38 26 64t63 26q22 0 40.5 -10t31.5 -26l5 25h108v-800h-113zM186 476q0 10 -7 17t-17 7q-11 0 -17.5 -7t-6.5 -17v-362q0 -10 6.5 -17t17.5 -7q10 0 17 7t7 17v362z" />
    <glyph glyph-name="r" unicode="r" horiz-adv-x="239" 
d="M232 480q-47 0 -69.5 -11t-22.5 -46v-423h-113v590h108l5 -32q13 17 36.5 30t55.5 13v-121v0z" />
    <glyph glyph-name="s" unicode="s" horiz-adv-x="296" 
d="M285 147q0 -29 -8.5 -57t-25.5 -50.5t-43 -36t-60 -13.5q-31 0 -55.5 10.5t-41.5 29.5t-26 43.5t-9 53.5v51h103v-62q0 -10 7 -19.5t20 -9.5q12 0 19 9.5t7 19.5q0 22 -3.5 38.5t-13.5 34.5t-27 41.5l-45 60.5q-27 35 -49.5 71t-22.5 81q0 41 11.5 71t30.5 49.5
t43.5 28.5t51.5 9q28 0 52.5 -11t42 -29.5t27.5 -44t10 -53.5v-58h-103v69q0 10 -7 18t-20 8q-14 0 -20 -8t-6 -18q0 -22 3 -37.5t10 -30t18.5 -30l28.5 -38.5l35 -45.5t32.5 -46t24 -48t9.5 -51.5z" />
    <glyph glyph-name="t" unicode="t" horiz-adv-x="250" 
d="M175 486v-347q0 -11 6.5 -17.5t17.5 -6.5h29v-115h-57q-48 0 -79 31t-31 79v376h-51v104h51v82h114v-82h58v-104h-58z" />
    <glyph glyph-name="u" unicode="u" horiz-adv-x="326" 
d="M191 0l-5 26q-13 -17 -31.5 -26.5t-40.5 -9.5q-37 0 -63 26t-26 63v511h113v-476q0 -10 7 -17t17 -7t17 7t7 17v476h113v-590h-108z" />
    <glyph glyph-name="v" unicode="v" horiz-adv-x="276" 
d="M183 0h-92l-91 590h106l31 -297l32 297h105z" />
    <glyph glyph-name="w" unicode="w" horiz-adv-x="432" 
d="M336 0h-87l-38 278l-39 -278h-86l-86 590h110l27 -297l36 297h85l37 -297l27 297h110z" />
    <glyph glyph-name="x" unicode="x" horiz-adv-x="307" 
d="M186 0l-32 165l-33 -165h-118l88 293l-88 297h118l32 -156l33 156h118l-89 -275l89 -315h-118z" />
    <glyph glyph-name="y" unicode="y" horiz-adv-x="308" 
d="M177 -110q-8 -48 -35.5 -74t-77.5 -26h-43v115h32q22 0 27 24l19 105l-97 556h111l37 -323l36 323h111z" />
    <glyph glyph-name="z" unicode="z" horiz-adv-x="253" 
d="M3 0l105 486h-95v104h228l-105 -485h105v-105h-238z" />
    <glyph glyph-name="braceleft" unicode="{" horiz-adv-x="309" 
d="M239 -275q-22 0 -45.5 7t-42.5 23t-31.5 42t-12.5 64v347q0 32 -21 32h-57v121h57q21 0 21 32v347q0 38 12.5 64t31.5 41.5t42.5 22.5t45.5 7h70v-111h-57q-21 0 -21 -32v-351q0 -29 -15 -48t-38 -35q23 -16 38 -35t15 -48v-346q0 -32 21 -32h57v-112h-70z" />
    <glyph glyph-name="bar" unicode="|" horiz-adv-x="183" 
d="M30 0v800h123v-800h-123z" />
    <glyph glyph-name="braceright" unicode="}" horiz-adv-x="309" 
d="M223 240q-21 0 -21 -32v-347q0 -38 -12.5 -64t-31.5 -42t-42.5 -23t-45.5 -7h-70v112h57q21 0 21 32v346q0 29 15 48t38 35q-23 16 -38 35t-15 48v351q0 32 -21 32h-57v111h70q22 0 45.5 -7t42.5 -22.5t31.5 -41.5t12.5 -64v-347q0 -32 21 -32h57v-121h-57z" />
    <glyph glyph-name="asciitilde" unicode="~" horiz-adv-x="337" 
d="M322 457q0 -54 -28 -84t-79 -30q-18 0 -31.5 5.5t-24.5 12.5t-21 12.5t-21 5.5q-19 0 -30 -8.5t-11 -27.5h-61q0 54 28.5 84t79.5 30q18 0 31 -5.5t24 -12l21 -12t22 -5.5q19 0 30 8.5t11 26.5h60v0z" />
    <glyph glyph-name="Adieresis" unicode="&#xc4;" horiz-adv-x="319" 
d="M199 891v109h102v-109h-102zM27 891v109h102v-109h-102zM189 0l-7 135h-56l-11 -135h-111l81 800h147l83 -800h-126zM159 530l-23 -273h39z" />
    <glyph glyph-name="Aring" unicode="&#xc5;" horiz-adv-x="319" 
d="M189 0l-7 135h-56l-11 -135h-111l81 800h27q-16 11 -25.5 28.5t-9.5 38.5q0 34 23.5 57.5t57.5 23.5t57.5 -23.5t23.5 -57.5q0 -21 -9.5 -38.5t-25.5 -28.5h28l83 -800h-126zM197 867q0 16 -11.5 27.5t-27.5 11.5q-17 0 -28 -11.5t-11 -27.5t11 -27.5t28 -11.5
q16 0 27.5 11.5t11.5 27.5zM159 530l-23 -273h39z" />
    <glyph glyph-name="Ccedilla" unicode="&#xc7;" horiz-adv-x="324" 
d="M307 137q0 -28 -9 -52.5t-25.5 -44t-38.5 -32t-49 -16.5l-3 -39q16 13 34 13q20 0 34 -15t14 -35v-70q0 -30 -20 -51.5t-51 -21.5t-51 21.5t-20 51.5v21h59v-19q0 -12 12 -12q5 0 8.5 3.5t3.5 8.5v53q0 5 -3.5 8.5t-8.5 3.5t-8.5 -3.5t-3.5 -8.5l-59 2l5 92
q-46 13 -75 52t-29 90v526q0 30 11 57t30 47t45 31.5t56 11.5t56 -11.5t45 -31.5t30 -47t11 -57v-164h-118v161q0 10 -7 17t-17 7t-17 -7t-7 -17v-520q0 -10 7 -17t17 -7t17 7t7 17v161h118v-164v0z" />
    <glyph glyph-name="Eacute" unicode="&#xc9;" horiz-adv-x="288" 
d="M173 858h-72l20 142h113zM27 0v800h243v-112h-119v-212h78v-122h-78v-232h119v-122h-243z" />
    <glyph glyph-name="Ntilde" unicode="&#xd1;" horiz-adv-x="369" 
d="M338 1010q0 -54 -28 -84t-79 -30q-18 0 -31.5 5.5t-24.5 12.5t-21 12.5t-21 5.5q-19 0 -30 -8.5t-11 -27.5h-61q0 54 28.5 84t79.5 30q18 0 31 -5.5t24 -12l21 -12t22 -5.5q19 0 30 8.5t11 26.5h60v0zM218 0l-88 427v-427h-103v800h143l69 -434v434h103v-800h-124z" />
    <glyph glyph-name="Odieresis" unicode="&#xd6;" horiz-adv-x="340" 
d="M205 891v109h102v-109h-102zM33 891v109h102v-109h-102zM317 137q0 -30 -11.5 -57t-31.5 -47t-47 -31.5t-57 -11.5t-57 11.5t-47 31.5t-31.5 47t-11.5 57v526q0 30 11.5 57t31.5 47t47 31.5t57 11.5t57 -11.5t47 -31.5t31.5 -47t11.5 -57v-526v0zM194 660q0 10 -7 17
t-17 7t-17 -7t-7 -17v-520q0 -10 7 -17t17 -7t17 7t7 17v520z" />
    <glyph glyph-name="Udieresis" unicode="&#xdc;" horiz-adv-x="329" 
d="M199 891v109h102v-109h-102zM27 891v109h102v-109h-102zM304 137q0 -30 -10 -57t-28 -47t-43 -31.5t-56 -11.5q-30 0 -56 11.5t-45 31.5t-30 47t-11 57v663h118v-660q0 -10 7 -17t17 -7q11 0 17.5 7t6.5 17v660h113v-663v0z" />
    <glyph glyph-name="aacute" unicode="&#xe1;" horiz-adv-x="314" 
d="M186 658h-72l20 142h113zM214 0l-6 33q-10 -20 -31 -31.5t-47 -11.5q-27 0 -49 10.5t-38 28.5t-24.5 43t-8.5 55v43q0 31 12.5 57t34.5 49t52 45.5l65 46.5v108q0 10 -4.5 17t-14.5 7q-11 0 -15 -7t-4 -17v-71h-113v58q0 28 10.5 53.5t29.5 44t43.5 29.5t53.5 11
q28 0 51.5 -11t40 -29.5t26 -44t9.5 -53.5v-341q0 -19 4.5 -55t15.5 -67h-93zM174 265q-23 -18 -35.5 -32t-12.5 -40v-74q0 -12 5.5 -20.5t18.5 -8.5q12 0 18 8.5t6 20.5v146z" />
    <glyph glyph-name="agrave" unicode="&#xe0;" horiz-adv-x="314" 
d="M127 658l-61 142h113l20 -142h-72zM214 0l-6 33q-10 -20 -31 -31.5t-47 -11.5q-27 0 -49 10.5t-38 28.5t-24.5 43t-8.5 55v43q0 31 12.5 57t34.5 49t52 45.5l65 46.5v108q0 10 -4.5 17t-14.5 7q-11 0 -15 -7t-4 -17v-71h-113v58q0 28 10.5 53.5t29.5 44t43.5 29.5
t53.5 11q28 0 51.5 -11t40 -29.5t26 -44t9.5 -53.5v-341q0 -19 4.5 -55t15.5 -67h-93zM174 265q-23 -18 -35.5 -32t-12.5 -40v-74q0 -12 5.5 -20.5t18.5 -8.5q12 0 18 8.5t6 20.5v146z" />
    <glyph glyph-name="acircumflex" unicode="&#xe2;" horiz-adv-x="314" 
d="M219 658l-61 69l-61 -69h-93l98 142h113l97 -142h-93zM214 0l-6 33q-10 -20 -31 -31.5t-47 -11.5q-27 0 -49 10.5t-38 28.5t-24.5 43t-8.5 55v43q0 31 12.5 57t34.5 49t52 45.5l65 46.5v108q0 10 -4.5 17t-14.5 7q-11 0 -15 -7t-4 -17v-71h-113v58q0 28 10.5 53.5
t29.5 44t43.5 29.5t53.5 11q28 0 51.5 -11t40 -29.5t26 -44t9.5 -53.5v-341q0 -19 4.5 -55t15.5 -67h-93zM174 265q-23 -18 -35.5 -32t-12.5 -40v-74q0 -12 5.5 -20.5t18.5 -8.5q12 0 18 8.5t6 20.5v146z" />
    <glyph glyph-name="adieresis" unicode="&#xe4;" horiz-adv-x="314" 
d="M191 691v109h102v-109h-102zM19 691v109h102v-109h-102zM214 0l-6 33q-10 -20 -31 -31.5t-47 -11.5q-27 0 -49 10.5t-38 28.5t-24.5 43t-8.5 55v43q0 31 12.5 57t34.5 49t52 45.5l65 46.5v108q0 10 -4.5 17t-14.5 7q-11 0 -15 -7t-4 -17v-71h-113v58q0 28 10.5 53.5
t29.5 44t43.5 29.5t53.5 11q28 0 51.5 -11t40 -29.5t26 -44t9.5 -53.5v-341q0 -19 4.5 -55t15.5 -67h-93zM174 265q-23 -18 -35.5 -32t-12.5 -40v-74q0 -12 5.5 -20.5t18.5 -8.5q12 0 18 8.5t6 20.5v146z" />
    <glyph glyph-name="atilde" unicode="&#xe3;" horiz-adv-x="314" 
d="M310 810q0 -54 -28 -84t-79 -30q-18 0 -31.5 5.5t-24.5 12.5t-21 12.5t-21 5.5q-19 0 -30 -8.5t-11 -27.5h-61q0 54 28.5 84t79.5 30q18 0 31 -5.5t24 -12l21 -12t22 -5.5q19 0 30 8.5t11 26.5h60v0zM214 0l-6 33q-10 -20 -31 -31.5t-47 -11.5q-27 0 -49 10.5t-38 28.5
t-24.5 43t-8.5 55v43q0 31 12.5 57t34.5 49t52 45.5l65 46.5v108q0 10 -4.5 17t-14.5 7q-11 0 -15 -7t-4 -17v-71h-113v58q0 28 10.5 53.5t29.5 44t43.5 29.5t53.5 11q28 0 51.5 -11t40 -29.5t26 -44t9.5 -53.5v-341q0 -19 4.5 -55t15.5 -67h-93zM174 265q-23 -18 -35.5 -32
t-12.5 -40v-74q0 -12 5.5 -20.5t18.5 -8.5q12 0 18 8.5t6 20.5v146z" />
    <glyph glyph-name="aring" unicode="&#xe5;" horiz-adv-x="314" 
d="M241 729q0 -34 -23.5 -57.5t-57.5 -23.5t-57.5 23.5t-23.5 57.5t23.5 57.5t57.5 23.5t57.5 -23.5t23.5 -57.5zM214 0l-6 33q-10 -20 -31 -31.5t-47 -11.5q-27 0 -49 10.5t-38 28.5t-24.5 43t-8.5 55v43q0 31 12.5 57t34.5 49t52 45.5l65 46.5v108q0 10 -4.5 17t-14.5 7
q-11 0 -15 -7t-4 -17v-71h-113v58q0 28 10.5 53.5t29.5 44t43.5 29.5t53.5 11q28 0 51.5 -11t40 -29.5t26 -44t9.5 -53.5v-341q0 -19 4.5 -55t15.5 -67h-93zM199 729q0 16 -11.5 27.5t-27.5 11.5q-17 0 -28 -11.5t-11 -27.5t11 -27.5t28 -11.5q16 0 27.5 11.5t11.5 27.5z
M174 265q-23 -18 -35.5 -32t-12.5 -40v-74q0 -12 5.5 -20.5t18.5 -8.5q12 0 18 8.5t6 20.5v146z" />
    <glyph glyph-name="ccedilla" unicode="&#xe7;" horiz-adv-x="317" 
d="M297 127q0 -25 -8.5 -47.5t-23.5 -40.5t-35.5 -30t-44.5 -16l-3 -40q16 13 34 13q20 0 34 -15t14 -35v-70q0 -30 -20 -51.5t-51 -21.5t-51 21.5t-20 51.5v21h59v-19q0 -12 12 -12q5 0 8.5 3.5t3.5 8.5v53q0 5 -3.5 8.5t-8.5 3.5t-8.5 -3.5t-3.5 -8.5l-59 2l6 91
q-46 11 -75.5 47.5t-29.5 85.5v336q0 28 10.5 53.5t29.5 44t43.5 29.5t53.5 11q28 0 53 -11t43.5 -29.5t29.5 -44t11 -53.5v-89h-113v102q0 10 -7 17t-17 7q-11 0 -17.5 -7t-6.5 -17v-362q0 -10 6.5 -17t17.5 -7q10 0 17 7t7 17v102h113v-89v0z" />
    <glyph glyph-name="eacute" unicode="&#xe9;" horiz-adv-x="324" 
d="M194 658h-72l20 142h113zM299 127q0 -29 -10.5 -53.5t-29.5 -43.5t-44 -29.5t-53 -10.5q-29 0 -53.5 10.5t-43.5 29.5t-29.5 43.5t-10.5 53.5v336q0 28 10.5 53.5t29.5 44t43.5 29.5t53.5 11q28 0 53 -11t44 -29.5t29.5 -44t10.5 -53.5v-190h-161v-159q0 -10 7 -17t17 -7
t17 7t7 17v102h113v-89v0zM186 476q0 10 -7 17t-17 7t-17 -7t-7 -17v-129h48v129z" />
    <glyph glyph-name="egrave" unicode="&#xe8;" horiz-adv-x="324" 
d="M125 658l-61 142h113l20 -142h-72zM299 127q0 -29 -10.5 -53.5t-29.5 -43.5t-44 -29.5t-53 -10.5q-29 0 -53.5 10.5t-43.5 29.5t-29.5 43.5t-10.5 53.5v336q0 28 10.5 53.5t29.5 44t43.5 29.5t53.5 11q28 0 53 -11t44 -29.5t29.5 -44t10.5 -53.5v-190h-161v-159
q0 -10 7 -17t17 -7t17 7t7 17v102h113v-89v0zM186 476q0 10 -7 17t-17 7t-17 -7t-7 -17v-129h48v129z" />
    <glyph glyph-name="ecircumflex" unicode="&#xea;" horiz-adv-x="324" 
d="M221 658l-61 69l-61 -69h-93l98 142h113l97 -142h-93zM299 127q0 -29 -10.5 -53.5t-29.5 -43.5t-44 -29.5t-53 -10.5q-29 0 -53.5 10.5t-43.5 29.5t-29.5 43.5t-10.5 53.5v336q0 28 10.5 53.5t29.5 44t43.5 29.5t53.5 11q28 0 53 -11t44 -29.5t29.5 -44t10.5 -53.5v-190
h-161v-159q0 -10 7 -17t17 -7t17 7t7 17v102h113v-89v0zM186 476q0 10 -7 17t-17 7t-17 -7t-7 -17v-129h48v129z" />
    <glyph glyph-name="edieresis" unicode="&#xeb;" horiz-adv-x="324" 
d="M196 691v109h102v-109h-102zM24 691v109h102v-109h-102zM299 127q0 -29 -10.5 -53.5t-29.5 -43.5t-44 -29.5t-53 -10.5q-29 0 -53.5 10.5t-43.5 29.5t-29.5 43.5t-10.5 53.5v336q0 28 10.5 53.5t29.5 44t43.5 29.5t53.5 11q28 0 53 -11t44 -29.5t29.5 -44t10.5 -53.5
v-190h-161v-159q0 -10 7 -17t17 -7t17 7t7 17v102h113v-89v0zM186 476q0 10 -7 17t-17 7t-17 -7t-7 -17v-129h48v129z" />
    <glyph glyph-name="iacute" unicode="&#xed;" 
d="M118 658h-72l20 142h113zM27 0v590h113v-590h-113z" />
    <glyph glyph-name="igrave" unicode="&#xec;" 
d="M47 658l-61 142h113l20 -142h-72zM27 0v590h113v-590h-113z" />
    <glyph glyph-name="icircumflex" unicode="&#xee;" 
d="M144 658l-61 69l-61 -69h-93l98 142h113l97 -142h-93zM27 0v590h113v-590h-113z" />
    <glyph glyph-name="idieresis" unicode="&#xef;" 
d="M119 691v109h102v-109h-102zM-53 691v109h102v-109h-102zM27 0v590h113v-590h-113z" />
    <glyph glyph-name="ntilde" unicode="&#xf1;" horiz-adv-x="326" 
d="M317 810q0 -54 -28 -84t-79 -30q-18 0 -31.5 5.5t-24.5 12.5t-21 12.5t-21 5.5q-19 0 -30 -8.5t-11 -27.5h-61q0 54 28.5 84t79.5 30q18 0 31 -5.5t24 -12l21 -12t22 -5.5q19 0 30 8.5t11 26.5h60v0zM188 0v476q0 10 -7 17t-17 7t-17 -7t-7 -17v-476h-113v590h108l5 -26
q12 17 30.5 27t41.5 10q37 0 63 -26t26 -64v-511h-113z" />
    <glyph glyph-name="oacute" unicode="&#xf3;" horiz-adv-x="320" 
d="M194 658h-72l20 142h113zM297 127q0 -29 -10.5 -53.5t-29.5 -43.5t-44 -29.5t-53 -10.5t-53 10.5t-43.5 29.5t-29.5 43.5t-11 53.5v336q0 28 11 53.5t29.5 44t43.5 29.5t53 11t53 -11t44 -29.5t29.5 -44t10.5 -53.5v-336v0zM184 476q0 10 -6.5 17t-17.5 7q-10 0 -17 -7
t-7 -17v-362q0 -10 7 -17t17 -7q11 0 17.5 7t6.5 17v362z" />
    <glyph glyph-name="ograve" unicode="&#xf2;" horiz-adv-x="320" 
d="M121 658l-61 142h113l20 -142h-72zM297 127q0 -29 -10.5 -53.5t-29.5 -43.5t-44 -29.5t-53 -10.5t-53 10.5t-43.5 29.5t-29.5 43.5t-11 53.5v336q0 28 11 53.5t29.5 44t43.5 29.5t53 11t53 -11t44 -29.5t29.5 -44t10.5 -53.5v-336v0zM184 476q0 10 -6.5 17t-17.5 7
q-10 0 -17 -7t-7 -17v-362q0 -10 7 -17t17 -7q11 0 17.5 7t6.5 17v362z" />
    <glyph glyph-name="ocircumflex" unicode="&#xf4;" horiz-adv-x="320" 
d="M219 658l-61 69l-61 -69h-93l98 142h113l97 -142h-93zM297 127q0 -29 -10.5 -53.5t-29.5 -43.5t-44 -29.5t-53 -10.5t-53 10.5t-43.5 29.5t-29.5 43.5t-11 53.5v336q0 28 11 53.5t29.5 44t43.5 29.5t53 11t53 -11t44 -29.5t29.5 -44t10.5 -53.5v-336v0zM184 476
q0 10 -6.5 17t-17.5 7q-10 0 -17 -7t-7 -17v-362q0 -10 7 -17t17 -7q11 0 17.5 7t6.5 17v362z" />
    <glyph glyph-name="odieresis" unicode="&#xf6;" horiz-adv-x="320" 
d="M195 691v109h102v-109h-102zM23 691v109h102v-109h-102zM297 127q0 -29 -10.5 -53.5t-29.5 -43.5t-44 -29.5t-53 -10.5t-53 10.5t-43.5 29.5t-29.5 43.5t-11 53.5v336q0 28 11 53.5t29.5 44t43.5 29.5t53 11t53 -11t44 -29.5t29.5 -44t10.5 -53.5v-336v0zM184 476
q0 10 -6.5 17t-17.5 7q-10 0 -17 -7t-7 -17v-362q0 -10 7 -17t17 -7q11 0 17.5 7t6.5 17v362z" />
    <glyph glyph-name="otilde" unicode="&#xf5;" horiz-adv-x="320" 
d="M314 810q0 -54 -28 -84t-79 -30q-18 0 -31.5 5.5t-24.5 12.5t-21 12.5t-21 5.5q-19 0 -30 -8.5t-11 -27.5h-61q0 54 28.5 84t79.5 30q18 0 31 -5.5t24 -12l21 -12t22 -5.5q19 0 30 8.5t11 26.5h60v0zM297 127q0 -29 -10.5 -53.5t-29.5 -43.5t-44 -29.5t-53 -10.5
t-53 10.5t-43.5 29.5t-29.5 43.5t-11 53.5v336q0 28 11 53.5t29.5 44t43.5 29.5t53 11t53 -11t44 -29.5t29.5 -44t10.5 -53.5v-336v0zM184 476q0 10 -6.5 17t-17.5 7q-10 0 -17 -7t-7 -17v-362q0 -10 7 -17t17 -7q11 0 17.5 7t6.5 17v362z" />
    <glyph glyph-name="uacute" unicode="&#xfa;" horiz-adv-x="326" 
d="M197 658h-72l20 142h113zM191 0l-5 26q-13 -17 -31.5 -26.5t-40.5 -9.5q-37 0 -63 26t-26 63v511h113v-476q0 -10 7 -17t17 -7t17 7t7 17v476h113v-590h-108z" />
    <glyph glyph-name="ugrave" unicode="&#xf9;" horiz-adv-x="326" 
d="M125 658l-61 142h113l20 -142h-72zM191 0l-5 26q-13 -17 -31.5 -26.5t-40.5 -9.5q-37 0 -63 26t-26 63v511h113v-476q0 -10 7 -17t17 -7t17 7t7 17v476h113v-590h-108z" />
    <glyph glyph-name="ucircumflex" unicode="&#xfb;" horiz-adv-x="326" 
d="M221 658l-61 69l-61 -69h-93l98 142h113l97 -142h-93zM191 0l-5 26q-13 -17 -31.5 -26.5t-40.5 -9.5q-37 0 -63 26t-26 63v511h113v-476q0 -10 7 -17t17 -7t17 7t7 17v476h113v-590h-108z" />
    <glyph glyph-name="udieresis" unicode="&#xfc;" horiz-adv-x="326" 
d="M196 691v109h102v-109h-102zM24 691v109h102v-109h-102zM191 0l-5 26q-13 -17 -31.5 -26.5t-40.5 -9.5q-37 0 -63 26t-26 63v511h113v-476q0 -10 7 -17t17 -7t17 7t7 17v476h113v-590h-108z" />
    <glyph glyph-name="dagger" unicode="&#x2020;" horiz-adv-x="378" 
d="M242 553v-280h-113v280h-102v105h102v142h113v-142h109v-105h-109z" />
    <glyph glyph-name="degree" unicode="&#xb0;" horiz-adv-x="364" 
d="M344 648q0 -34 -12.5 -63.5t-34.5 -51.5t-51.5 -34.5t-63.5 -12.5t-63.5 12.5t-51.5 34.5t-34.5 51.5t-12.5 63.5t12.5 63.5t34.5 51.5t51.5 34.5t63.5 12.5t63.5 -12.5t51.5 -34.5t34.5 -51.5t12.5 -63.5zM260 648q0 32 -23 55t-55 23q-33 0 -55.5 -23t-22.5 -55
t22.5 -55t55.5 -23q32 0 55 23t23 55z" />
    <glyph glyph-name="cent" unicode="&#xa2;" horiz-adv-x="317" 
d="M297 127q0 -47 -27 -82.5t-69 -48.5v-59h-86v60q-41 14 -66.5 49.5t-25.5 80.5v337q0 45 26 80t66 49v62h86v-61q42 -13 69 -48.5t27 -81.5v-90h-113v102q0 10 -7 17t-17 7t-17 -7t-7 -17v-362q0 -10 7 -17t17 -7t17 7t7 17v102h113v-89v0z" />
    <glyph glyph-name="sterling" unicode="&#xa3;" horiz-adv-x="458" 
d="M435 137q0 -30 -10.5 -57t-29.5 -47t-44.5 -31.5t-56.5 -11.5q-16 0 -33 4.5t-33 12t-28.5 17t-19.5 19.5q-17 -28 -36 -40.5t-45 -12.5q-41 0 -69 24.5t-28 65.5q0 36 27 65t79 29q7 0 18 -2t19 -5q13 29 23 60t10 71q0 31 -8 61h-95v86h70q-8 32 -20 75.5t-12 105.5
q0 81 38 132.5t113 51.5q30 0 56 -11.5t44.5 -31.5t29 -47t10.5 -57v-117h-113v112q0 18 -7.5 27t-19.5 9t-22.5 -9t-10.5 -27q0 -39 3.5 -70.5t9 -57t11 -46.5t9.5 -39h98v-86h-83q1 -8 1.5 -16t0.5 -16q0 -47 -17 -93t-44 -100l26 -14q6 -5 17 -9.5t25 -4.5
q17 0 25.5 11.5t8.5 29.5v107h113v-117v0zM119 97q-5 10 -12.5 13.5t-14.5 3.5q-17 0 -17 -19q0 -9 5 -13.5t12 -4.5q16 0 27 20z" />
    <glyph glyph-name="section" unicode="&#xa7;" horiz-adv-x="299" 
d="M289 403q0 -40 -19.5 -76.5t-60.5 -53.5q29 -34 52 -68t23 -74q0 -26 -8.5 -51t-25.5 -45t-42.5 -32.5t-60.5 -12.5q-31 0 -55.5 9.5t-41.5 26.5t-26 39t-9 48v46h103v-55q0 -9 7 -18t20 -9q12 0 19 9t7 18q0 19 -3.5 34t-13.5 31t-27 37l-45 54q-27 32 -49.5 64
t-22.5 73q0 54 22 86.5t57 46.5q-27 32 -50.5 65t-23.5 74q0 37 11.5 63.5t30.5 43.5t43.5 25.5t51.5 8.5q28 0 52.5 -9.5t42 -26.5t27.5 -39.5t10 -47.5v-52h-103v61q0 9 -7 16.5t-20 7.5t-19.5 -7.5t-6.5 -16.5q0 -20 3 -33.5t10 -26.5t19 -27l29 -35l34.5 -40.5t32 -41.5
t24 -43t9.5 -46zM184 414q0 14 -10.5 24t-24.5 10t-24 -10t-10 -24v-31q0 -14 10 -24t24 -10t24.5 10t10.5 24v31z" />
    <glyph glyph-name="bullet" unicode="&#x2022;" horiz-adv-x="253" 
d="M238 400q0 -23 -9 -43t-24 -35t-35 -24t-43 -9t-43.5 9t-35.5 24t-24 35t-9 43t9 43.5t24 35.5t35.5 23.5t43.5 8.5t43 -8.5t35 -23.5t24 -35.5t9 -43.5z" />
    <glyph glyph-name="paragraph" unicode="&#xb6;" horiz-adv-x="470" 
d="M361 0v800h82v-800h-82zM217 0v324h-68q-22 0 -45.5 15t-42.5 45t-31.5 74.5t-12.5 103.5q0 58 12.5 102.5t31.5 74.5t42.5 45.5t45.5 15.5h151v-800h-83z" />
    <glyph glyph-name="germandbls" unicode="&#xdf;" horiz-adv-x="331" 
d="M312 132q0 -32 -11.5 -57.5t-31.5 -43t-47 -27t-58 -9.5v100q14 0 24 10.5t10 24.5v280q0 14 -10 24t-24 10v101q15 0 28.5 18t13.5 59q0 29 -4 46.5t-10 26.5t-13.5 12t-14.5 3q-10 0 -17 -7t-7 -17v-686h-113v680q0 55 36.5 92.5t100.5 37.5q69 0 108 -45t39 -143
q0 -43 -16 -74.5t-39 -47.5q26 -12 41 -35.5t15 -56.5v-276v0z" />
    <glyph glyph-name="registered" unicode="&#xae;" horiz-adv-x="880" 
d="M850 400q0 -85 -32 -159.5t-87.5 -130t-130.5 -88t-160 -32.5t-159.5 32.5t-130 88t-88 130t-32.5 159.5t32.5 160t88 130.5t130 87.5t159.5 32t160 -32t130.5 -87.5t87.5 -130.5t32 -160zM778 400q0 70 -26.5 131.5t-72.5 107.5t-107.5 72.5t-131.5 26.5t-131.5 -26.5
t-107.5 -72.5t-72.5 -107.5t-26.5 -131.5t26.5 -131.5t72.5 -107.5t107.5 -72.5t131.5 -26.5t131.5 26.5t107.5 72.5t72.5 107.5t26.5 131.5zM508 217q-8 12 -13.5 27t-5.5 30v67q0 8 -5.5 13.5t-13.5 5.5h-60v-143h-145v367h241q28 0 50.5 -8t38 -20.5t23.5 -29.5t8 -35
q0 -36 -18.5 -60.5t-49.5 -32.5q10 -3 22 -9t22 -16.5t17 -26.5t7 -38v-30q0 -17 5.5 -32.5t12.5 -28.5h-136zM489 451q0 8 -5.5 15t-13.5 7h-60v-44h60q8 0 13.5 7t5.5 15z" />
    <glyph glyph-name="copyright" unicode="&#xa9;" horiz-adv-x="880" 
d="M850 400q0 -85 -32 -159.5t-87.5 -130t-130.5 -88t-160 -32.5t-159.5 32.5t-130 88t-88 130t-32.5 159.5t32.5 160t88 130.5t130 87.5t159.5 32t160 -32t130.5 -87.5t87.5 -130.5t32 -160zM778 400q0 70 -26.5 131.5t-72.5 107.5t-107.5 72.5t-131.5 26.5t-131.5 -26.5
t-107.5 -72.5t-72.5 -107.5t-26.5 -131.5t26.5 -131.5t72.5 -107.5t107.5 -72.5t131.5 -26.5t131.5 26.5t107.5 72.5t72.5 107.5t26.5 131.5zM622 368q-4 -34 -18 -63.5t-36.5 -51t-52.5 -34t-65 -12.5q-39 0 -74 15t-60.5 41.5t-40.5 61.5t-15 75t15 75t40.5 61.5
t60.5 41.5t74 15q36 0 65.5 -12.5t52 -34t36.5 -51.5t18 -64h-119q-4 26 -19 37.5t-29 11.5q-18 0 -33.5 -18.5t-15.5 -61.5t15.5 -61.5t33.5 -18.5q14 0 29 11.5t19 36.5h119v0z" />
    <glyph glyph-name="trademark" unicode="&#x2122;" horiz-adv-x="1016" 
d="M837 415v245l-65 -245h-116l-74 245v-245h-119v385h212l48 -169l49 169h217v-385h-152zM296 684v-269h-152v269h-117v116h387v-116h-118z" />
    <glyph glyph-name="acute" unicode="&#xb4;" horiz-adv-x="200" 
d="M113 658h-72l20 142h113z" />
    <glyph glyph-name="dieresis" unicode="&#xa8;" horiz-adv-x="328" 
d="M199 691v109h102v-109h-102zM27 691v109h102v-109h-102z" />
    <glyph glyph-name="AE" unicode="&#xc6;" horiz-adv-x="429" 
d="M169 0v135h-43l-11 -135h-111l82 800h325v-112h-119v-212h79v-122h-79v-232h119v-122h-242zM169 634l-33 -377h33v377z" />
    <glyph glyph-name="Oslash" unicode="&#xd8;" horiz-adv-x="340" 
d="M307 716q10 -23 10 -53v-526q0 -30 -11.5 -57t-31.5 -47t-47 -31.5t-57 -11.5q-46 0 -84 27l-11 -47h-72l30 113q-10 28 -10 54v526q0 30 11.5 57t31.5 47t47 31.5t57 11.5q46 0 84 -27l12 48h72zM194 660q0 10 -7 17t-17 7t-17 -7t-7 -17v-520q0 -10 7 -17t17 -7t17 7
t7 17v520z" />
    <glyph glyph-name="yen" unicode="&#xa5;" horiz-adv-x="370" 
d="M243 191v-191h-119v191h-104v96h104v7l-15 59h-89v97h64l-64 249h119l51 -237l47 237h113l-66 -249h66v-97h-91l-16 -59v-7h107v-96h-107z" />
    <glyph glyph-name="ordfeminine" unicode="&#xaa;" horiz-adv-x="218" 
d="M143 449l-4 20q-6 -12 -20 -19t-31 -7q-35 0 -56.5 23.5t-21.5 59.5v25q0 38 30.5 64t76.5 55v65q0 14 -12 14q-13 0 -13 -14v-43h-73v35q0 35 26 59t63 24t60 -24t23 -59v-204q0 -11 2.5 -33t10.5 -41h-61zM117 608q-15 -11 -23 -19t-8 -24v-44q0 -8 3.5 -13t11.5 -5
t12 5t4 13v87z" />
    <glyph glyph-name="ordmasculine" unicode="&#xba;" horiz-adv-x="224" 
d="M201 526q0 -35 -26 -59t-63 -24t-63 24t-26 59v201q0 35 26 59t63 24t63 -24t26 -59v-201v0zM128 735q0 14 -16 14q-6 0 -11 -4t-5 -10v-217q0 -6 5 -10.5t11 -4.5q7 0 11.5 4.5t4.5 10.5v217z" />
    <glyph glyph-name="ae" unicode="&#xe6;" horiz-adv-x="473" 
d="M448 127q0 -29 -11 -53.5t-29.5 -43.5t-43.5 -29.5t-53 -10.5q-64 0 -103 45q-11 -21 -31.5 -33t-46.5 -12q-27 0 -49 10.5t-38 28.5t-24.5 43t-8.5 55v43q0 31 12 57t34 49t52 45.5l65 46.5v108q0 10 -4 17t-14 7q-11 0 -15 -7t-4 -17v-71h-113v59q0 28 10.5 53
t29.5 43.5t43.5 29.5t53.5 11q42 0 74 -24q35 24 77 24q28 0 53 -11t43.5 -29.5t29.5 -43.5t11 -53v-191h-161v-159q0 -10 6.5 -17t17.5 -7q10 0 17 7t7 17v102h113v-89v0zM335 476q0 10 -7 17t-17 7q-11 0 -17.5 -7t-6.5 -17v-129h48v129zM173 266q-23 -19 -35 -33t-12 -40
v-74q0 -12 5.5 -20.5t17.5 -8.5q13 0 18.5 8.5t5.5 20.5v147z" />
    <glyph glyph-name="oslash" unicode="&#xf8;" horiz-adv-x="320" 
d="M288 513q9 -24 9 -50v-336q0 -29 -10.5 -53.5t-29.5 -43.5t-44 -29.5t-53 -10.5q-42 0 -75 22l-10 -42h-72l29 108q-9 24 -9 49v336q0 28 11 53.5t29.5 44t43.5 29.5t53 11q42 0 74 -23l11 43h72zM184 476q0 10 -6.5 17t-17.5 7q-10 0 -17 -7t-7 -17v-362q0 -10 7 -17
t17 -7q11 0 17.5 7t6.5 17v362z" />
    <glyph glyph-name="questiondown" unicode="&#xbf;" horiz-adv-x="325" 
d="M110 351v121h113v-121h-113zM307 -191q0 -30 -10.5 -57t-29 -47t-44.5 -31.5t-56 -11.5q-75 0 -113 51.5t-38 133.5q0 39 8 70.5t20 59t26 53.5t26 54t20 59.5t8 71.5q0 16 -4.5 35.5t-9.5 36.5h113q6 -21 11 -43.5t5 -42.5q0 -44 -8 -76t-19.5 -59t-25 -51.5t-25 -53
t-19.5 -64t-8 -83.5q0 -18 10.5 -27t22.5 -9t19.5 9t7.5 27v112h113v-117v0z" />
    <glyph glyph-name="exclamdown" unicode="&#xa1;" horiz-adv-x="183" 
d="M35 351v121h113v-121h-113zM30 -328v247l30 368h62l31 -368v-247h-123z" />
    <glyph glyph-name="florin" unicode="&#x192;" horiz-adv-x="272" 
d="M248 685q-10 0 -17.5 -6.5t-9.5 -17.5l-24 -157h60v-105h-76l-77 -499q-8 -48 -43 -79t-83 -31h-43v115h33q10 0 17.5 7t9.5 17l73 470h-48v105h64l28 186q8 48 43 79t83 31h43v-115h-33z" />
    <glyph glyph-name="guillemotleft" unicode="&#xab;" horiz-adv-x="474" 
d="M316 0l-93 295l93 295h138l-99 -295l99 -295h-138zM108 0l-93 295l93 295h138l-99 -295l99 -295h-138z" />
    <glyph glyph-name="guillemotright" unicode="&#xbb;" horiz-adv-x="474" 
d="M366 0h-138l99 295l-99 295h138l93 -295zM158 0h-138l99 295l-99 295h138l93 -295z" />
    <glyph glyph-name="ellipsis" unicode="&#x2026;" horiz-adv-x="501" 
d="M361 0v121h113v-121h-113zM194 0v121h113v-121h-113zM27 0v121h113v-121h-113z" />
    <glyph glyph-name="Agrave" unicode="&#xc0;" horiz-adv-x="319" 
d="M121 858l-61 142h113l20 -142h-72zM189 0l-7 135h-56l-11 -135h-111l81 800h147l83 -800h-126zM159 530l-23 -273h39z" />
    <glyph glyph-name="Atilde" unicode="&#xc3;" horiz-adv-x="319" 
d="M316 1010q0 -54 -28 -84t-79 -30q-18 0 -31.5 5.5t-24.5 12.5t-21 12.5t-21 5.5q-19 0 -30 -8.5t-11 -27.5h-61q0 54 28.5 84t79.5 30q18 0 31 -5.5t24 -12l21 -12t22 -5.5q19 0 30 8.5t11 26.5h60v0zM189 0l-7 135h-56l-11 -135h-111l81 800h147l83 -800h-126zM159 530
l-23 -273h39z" />
    <glyph glyph-name="Otilde" unicode="&#xd5;" horiz-adv-x="340" 
d="M328 1010q0 -54 -28 -84t-79 -30q-18 0 -31.5 5.5t-24.5 12.5t-21 12.5t-21 5.5q-19 0 -30 -8.5t-11 -27.5h-61q0 54 28.5 84t79.5 30q18 0 31 -5.5t24 -12l21 -12t22 -5.5q19 0 30 8.5t11 26.5h60v0zM317 137q0 -30 -11.5 -57t-31.5 -47t-47 -31.5t-57 -11.5t-57 11.5
t-47 31.5t-31.5 47t-11.5 57v526q0 30 11.5 57t31.5 47t47 31.5t57 11.5t57 -11.5t47 -31.5t31.5 -47t11.5 -57v-526v0zM194 660q0 10 -7 17t-17 7t-17 -7t-7 -17v-520q0 -10 7 -17t17 -7t17 7t7 17v520z" />
    <glyph glyph-name="OE" unicode="&#x152;" horiz-adv-x="454" 
d="M170 0q-30 0 -57 11.5t-47 31.5t-31.5 47t-11.5 57v506q0 30 11.5 57t31.5 47t47 31.5t57 11.5h266v-112h-119v-212h79v-122h-79v-232h119v-122h-266zM194 650q0 10 -7 17t-17 7t-17 -7t-7 -17v-499q0 -11 7 -17.5t17 -6.5t17 6.5t7 17.5v499z" />
    <glyph glyph-name="oe" unicode="&#x153;" horiz-adv-x="483" 
d="M458 127q0 -29 -10.5 -53.5t-29.5 -43.5t-44 -29.5t-53 -10.5q-47 0 -81 26q-17 -12 -37 -19t-43 -7q-29 0 -53.5 10.5t-43.5 29.5t-29.5 43.5t-10.5 53.5v337q0 28 10.5 53t29.5 43.5t43.5 29.5t53.5 11q23 0 43.5 -7t37.5 -20q17 12 37 19.5t43 7.5q28 0 53 -11
t44 -29.5t29.5 -43.5t10.5 -53v-191h-161v-159q0 -10 7 -17t17 -7t17 7t7 17v102h113v-89v0zM345 476q0 10 -7 17t-17 7t-17 -7t-7 -17v-129h48v129zM184 476q0 10 -7 17t-17 7t-17 -7t-7 -17v-362q0 -10 7 -17t17 -7t17 7t7 17v362z" />
    <glyph glyph-name="endash" unicode="&#x2013;" horiz-adv-x="527" 
d="M27 300v122h473v-122h-473z" />
    <glyph glyph-name="emdash" unicode="&#x2014;" horiz-adv-x="1027" 
d="M27 300v122h973v-122h-973z" />
    <glyph glyph-name="quotedblleft" unicode="&#x201c;" horiz-adv-x="314" 
d="M244 720h43v-122h-113v122l85 90h34zM97 720h43v-122h-113v122l84 90h35z" />
    <glyph glyph-name="quotedblright" unicode="&#x201d;" horiz-adv-x="314" 
d="M203 588h-34l48 91h-43v121h113v-121zM56 588h-35l49 91h-43v121h113v-121z" />
    <glyph glyph-name="quoteleft" unicode="&#x2018;" 
d="M97 720h43v-122h-113v122l84 90h35z" />
    <glyph glyph-name="quoteright" unicode="&#x2019;" 
d="M56 588h-35l49 91h-43v121h113v-121z" />
    <glyph glyph-name="ydieresis" unicode="&#xff;" horiz-adv-x="308" 
d="M187 691v109h102v-109h-102zM15 691v109h102v-109h-102zM177 -110q-8 -48 -35.5 -74t-77.5 -26h-43v115h32q22 0 27 24l19 105l-97 556h111l37 -323l36 323h111z" />
    <glyph glyph-name="Ydieresis" unicode="&#x178;" horiz-adv-x="324" 
d="M199 891v109h102v-109h-102zM27 891v109h102v-109h-102zM224 355v-355h-119v355l-99 445h119l46 -257l42 257h113z" />
    <glyph glyph-name="fraction" unicode="&#x2044;" horiz-adv-x="637" 
d="M122 0h-122l515 800h122z" />
    <glyph glyph-name="guilsinglleft" unicode="&#x2039;" horiz-adv-x="266" 
d="M108 0l-93 295l93 295h138l-99 -295l99 -295h-138z" />
    <glyph glyph-name="guilsinglright" unicode="&#x203a;" horiz-adv-x="266" 
d="M158 0h-138l99 295l-99 295h138l93 -295z" />
    <glyph glyph-name="fi" unicode="&#xfb01;" horiz-adv-x="369" 
d="M229 667v133h113v-133h-113zM229 0v590h113v-590h-113zM154 486v-486h-113v486h-36v104h36v100q0 48 31 79t78 31h52v-115h-24q-10 0 -17 -6.5t-7 -17.5v-71h48v-104h-48z" />
    <glyph glyph-name="fl" unicode="&#xfb02;" horiz-adv-x="369" 
d="M229 0v800h113v-800h-113zM154 486v-486h-113v486h-36v104h36v100q0 48 31 79t78 31h52v-115h-24q-10 0 -17 -6.5t-7 -17.5v-71h48v-104h-48z" />
    <glyph glyph-name="daggerdbl" unicode="&#x2021;" horiz-adv-x="378" 
d="M243 553v-306h102v-105h-102v-142h-114v142h-108v105h108v306h-102v105h102v142h114v-142h108v-105h-108z" />
    <glyph glyph-name="periodcentered" unicode="&#xb7;" 
d="M27 350v122h113v-122h-113z" />
    <glyph glyph-name="quotesinglbase" unicode="&#x201a;" 
d="M55 -90h-34l49 90h-43v121h113v-121z" />
    <glyph glyph-name="quotedblbase" unicode="&#x201e;" horiz-adv-x="314" 
d="M203 -91h-34l48 91h-43v121h113v-121zM56 -91h-35l49 91h-43v121h113v-121z" />
    <glyph glyph-name="perthousand" unicode="&#x2030;" horiz-adv-x="1035" 
d="M1012 127q0 -29 -10.5 -53.5t-29.5 -43.5t-44 -29.5t-53 -10.5q-29 0 -53.5 10.5t-43.5 29.5t-29.5 43.5t-10.5 53.5v202q0 28 10.5 53t29.5 44t43.5 29.5t53.5 10.5q28 0 53 -10.5t44 -29.5t29.5 -44t10.5 -53v-202v0zM703 127q0 -29 -10.5 -53.5t-29.5 -43.5t-44 -29.5
t-53 -10.5q-29 0 -53.5 10.5t-43.5 29.5t-29.5 43.5t-10.5 53.5v202q0 28 10.5 53t29.5 44t43.5 29.5t53.5 10.5q28 0 53 -10.5t44 -29.5t29.5 -44t10.5 -53v-202v0zM211 0h-82l386 800h82zM297 471q0 -29 -10.5 -53.5t-29.5 -43.5t-44 -29.5t-53 -10.5q-29 0 -53.5 10.5
t-43.5 29.5t-29.5 43.5t-10.5 53.5v202q0 28 10.5 53t29.5 44t43.5 29.5t53.5 10.5q28 0 53 -10.5t44 -29.5t29.5 -44t10.5 -53v-202v0zM899 342q0 10 -7 17t-17 7t-17 -7t-7 -17v-228q0 -10 7 -17t17 -7t17 7t7 17v228zM590 342q0 10 -7 17t-17 7t-17 -7t-7 -17v-228
q0 -10 7 -17t17 -7t17 7t7 17v228zM184 686q0 10 -7 17t-17 7t-17 -7t-7 -17v-228q0 -10 7 -17t17 -7t17 7t7 17v228z" />
    <glyph glyph-name="Acircumflex" unicode="&#xc2;" horiz-adv-x="319" 
d="M220 858l-61 69l-61 -69h-93l98 142h113l97 -142h-93zM189 0l-7 135h-56l-11 -135h-111l81 800h147l83 -800h-126zM159 530l-23 -273h39z" />
    <glyph glyph-name="Ecircumflex" unicode="&#xca;" horiz-adv-x="288" 
d="M206 858l-61 69l-61 -69h-93l98 142h113l97 -142h-93zM27 0v800h243v-112h-119v-212h78v-122h-78v-232h119v-122h-243z" />
    <glyph glyph-name="Aacute" unicode="&#xc1;" horiz-adv-x="319" 
d="M189 858h-72l20 142h113zM189 0l-7 135h-56l-11 -135h-111l81 800h147l83 -800h-126zM159 530l-23 -273h39z" />
    <glyph glyph-name="Edieresis" unicode="&#xcb;" horiz-adv-x="288" 
d="M185 891v109h102v-109h-102zM13 891v109h102v-109h-102zM27 0v800h243v-112h-119v-212h78v-122h-78v-232h119v-122h-243z" />
    <glyph glyph-name="Egrave" unicode="&#xc8;" horiz-adv-x="288" 
d="M115 858l-61 142h113l20 -142h-72zM27 0v800h243v-112h-119v-212h78v-122h-78v-232h119v-122h-243z" />
    <glyph glyph-name="Iacute" unicode="&#xcd;" horiz-adv-x="183" 
d="M125 858h-72l20 142h113zM30 0v800h123v-800h-123z" />
    <glyph glyph-name="Icircumflex" unicode="&#xce;" horiz-adv-x="183" 
d="M154 858l-61 69l-61 -69h-93l98 142h113l97 -142h-93zM30 0v800h123v-800h-123z" />
    <glyph glyph-name="Idieresis" unicode="&#xcf;" horiz-adv-x="183" 
d="M125 891v109h102v-109h-102zM-47 891v109h102v-109h-102zM30 0v800h123v-800h-123z" />
    <glyph glyph-name="Igrave" unicode="&#xcc;" horiz-adv-x="183" 
d="M53 858l-61 142h113l20 -142h-72zM30 0v800h123v-800h-123z" />
    <glyph glyph-name="Oacute" unicode="&#xd3;" horiz-adv-x="340" 
d="M205 858h-72l20 142h113zM317 137q0 -30 -11.5 -57t-31.5 -47t-47 -31.5t-57 -11.5t-57 11.5t-47 31.5t-31.5 47t-11.5 57v526q0 30 11.5 57t31.5 47t47 31.5t57 11.5t57 -11.5t47 -31.5t31.5 -47t11.5 -57v-526v0zM194 660q0 10 -7 17t-17 7t-17 -7t-7 -17v-520
q0 -10 7 -17t17 -7t17 7t7 17v520z" />
    <glyph glyph-name="Ocircumflex" unicode="&#xd4;" horiz-adv-x="340" 
d="M230 858l-61 69l-61 -69h-93l98 142h113l97 -142h-93zM317 137q0 -30 -11.5 -57t-31.5 -47t-47 -31.5t-57 -11.5t-57 11.5t-47 31.5t-31.5 47t-11.5 57v526q0 30 11.5 57t31.5 47t47 31.5t57 11.5t57 -11.5t47 -31.5t31.5 -47t11.5 -57v-526v0zM194 660q0 10 -7 17t-17 7
t-17 -7t-7 -17v-520q0 -10 7 -17t17 -7t17 7t7 17v520z" />
    <glyph glyph-name="apple" unicode="&#xf8ff;" horiz-adv-x="967" 
d="M100 0v750h767v-750h-767zM852 -104q0 1 -0.5 3t-0.5 3l-2 13q-3 -5 -5 -9l-3.5 -7t-1.5 -4h-2l-10 20l-2 -13v-3t-1 -3h-6q2 6 2 11l2 11q1 2 1 6t1 6h1q1 -2 2 -3.5t1 -3.5l10 -18l10 18l2 4t1 3h1q2 -6 2 -12l2 -11q1 -2 1 -5.5t1 -5.5h-6zM805 -87q0 -8 -4.5 -13
t-12.5 -5t-12.5 5t-4.5 12q0 8 5 13t13 5q7 0 11.5 -5t4.5 -12zM756 -102q-3 -3 -10 -3q-18 0 -18 17q0 8 5 13t13 5q6 0 11 -3l-2 -5q-3 3 -9 3q-11 0 -11 -12q0 -13 12 -13q4 0 10 4zM715 -101q0 -4 -4 -4t-4 4t4 4t4 -4zM688 -90v-7v-7h-7v11v3l-5 8q-2 2 -4 5.5t-4 5.5
l7 1l10 -15l2 4q2 2 3.5 5t3.5 5h7zM648 -104q1 2 1 5.5v5.5v4h-16v-8v-7h-7q1 2 1 5.5v5.5v11v5.5t-1 5.5h7v-7v-6h16v2v5.5t-1 5.5h7v-7v-19v-7h-7zM612 -81q0 -12 -15 -12h-3v-4v-7h-7q1 2 1 5.5v5.5v11v5.5t-1 5.5q2 0 5 0.5t6 0.5q7 0 10.5 -3.5t3.5 -7.5zM568 -104
l-4 8h-14v-1q-2 -4 -3 -7h-7l12 24q2 4 4 10h2l11 -24q3 -5 5 -10h-6zM526 -104l-8 13h-5v-6v-7h-7v11v11v11h10q14 0 14 -9q0 -7 -7 -10l5 -7q1 -2 2.5 -3.5t2.5 -3.5h-7zM490 -101q-6 -4 -13 -4q-8 0 -13 4.5t-5 12.5t5.5 13t13.5 5q5 0 11 -4l-2 -5q-4 4 -10 4
q-11 0 -11 -13q0 -12 12 -12q2 0 6 2v4v3h-3h-6v5h7h8v-11v-4v0zM446 -87q0 -8 -4.5 -13t-12.5 -5t-12.5 5t-4.5 12q0 8 5 13t13 5q7 0 11.5 -5t4.5 -12zM400 -81q0 -12 -15 -12h-3v-4v-4t1 -3h-7v11v11v11q1 0 4 0.5t6 0.5q7 0 10.5 -3.5t3.5 -7.5zM350 -90v-7v-7h-7v11v3
l-5 8q-2 2 -4 5.5t-4 5.5l7 1l10 -15l2 4q2 2 3.5 5t3.5 5h7zM322 -70q-1 -2 -1 -6h-11v-3v-18v-7h-7q1 2 1 5.5v5.5v10v7h-12v6q5 -1 15 -1t15 1zM280 -101q0 -4 -4 -4q-3 0 -3 4t4 4q3 0 3 -4zM257 -95q-2 -3 -2.5 -5t-1.5 -4l-1 -1l-9 22l-6 -12q-2 -4 -4 -10h-1l-9 25
q-1 2 -2 4.5t-2 4.5l7 1l7 -22l6 13q0 1 1.5 4t1.5 5h1l9 -22l5 12l3 9h6zM201 -95q-3 -6 -3 -9l-2 -1l-9 22l-6 -12q-2 -4 -4 -10h-1l-9 25q-2 6 -4 9l7 1l7 -22l6 13q0 1 1.5 4t1.5 5h2l9 -22l4 12l3 9h6zM145 -95l-3 -9l-1 -1l-10 22l-5 -12l-2.5 -5l-2.5 -5h-1l-9 25
l-3 9l6 1l8 -22l5 13q1 1 2 4t2 5h1l9 -22l4 12l3 9h7zM820 520q0 2 -2 2q-6 2 -7 3.5t-2 5.5l-8 33q-1 1 -1 4q0 4 8 5q1 0 1 1q0 2 -2 2q-4 0 -7 -0.5t-7 -0.5q-5 0 -7 0.5t-6 0.5v-1q0 -2 1 -2q5 -1 6 -3l3 -6l3 -14h-25l-4 14v4q0 4 7 5v1q0 2 -1 2q-5 0 -7 -0.5
t-7 -0.5q-4 0 -6.5 0.5t-6.5 0.5v-1v-2q7 -1 8 -3l3 -6l7 -33q1 -1 1 -4q0 -4 -8 -5v-1v-1q0 -1 1 -1q5 0 7.5 0.5t7.5 0.5t6.5 -0.5t5.5 -0.5v1v2q-7 2 -8 3.5t-1 5.5l-4 15h25l3 -15q1 -1 1 -4q0 -4 -7 -5v-1v-1q0 -1 1 -1q5 0 7 0.5t7 0.5t7 -0.5t6 -0.5zM559 686
q-2 4 -2 6.5t-2 5.5q-2 -1 -4 -1h-11h-11.5t-4.5 1q0 -3 -0.5 -5.5t-1.5 -6.5h1h1q2 5 3 7t6 2q3 0 3 -3v-22q0 -5 -5 -6q-1 0 -1 -1t1 -1h9h8q1 0 1 1t-1 1q-5 1 -5 6v22q0 3 3 3q8 0 11 -9h2v0zM694 540q0 15 -11 26.5t-25 11.5q-7 0 -14.5 -5t-7.5 -17q0 -16 11 -27
t25 -11q7 0 14.5 5t7.5 17zM503 663v1q-5 1 -5.5 2t-0.5 4v19q0 3 0.5 4.5t5.5 1.5v1v1h-9h-9v-1v-1q5 0 5 -6v-8h-17v8q0 6 5 6v1v1h-9h-8q-1 0 -1 -1t1 -1q5 0 5 -6v-19q0 -5 -5 -6q-1 0 -1 -1t1 -1h8h9v1v1q-5 1 -5 6v9h17v-9q0 -5 -5 -6v-1v-1h9h9v1zM825 440h-147v-62
h36v28h11v-65h-14v-33h81v33h-14v65h11v-28h36v62zM587 536q0 11 -13 18q4 4 4 9t-5.5 10t-14.5 5q-6 0 -9.5 -3.5t-3.5 -8.5q0 -6 5 -6q4 0 4 3t-1.5 3.5t-1.5 2.5q0 6 7 6q10 0 10 -12q0 -4 -2 -6h-8q-8 0 -8 -6t8 -6q6 0 11 5q6 -5 6 -15q0 -14 -12 -14t-12 9q0 3 3 3
q1 0 2 -1t3 -1q4 0 4 5t-7 5q-9 0 -9 -10q0 -13 16 -13q11 0 17.5 5t6.5 13zM826 623h-685v-4h685v4zM439 663q0 1 -1 1q-5 1 -5 6v19q0 6 5 6l1 1q0 1 -1 1h-16h-12q0 -6 -2 -10l2 -1v1q3 8 9 8h3q4 0 4 -4v-10h-4q-6 0 -6 5q0 1 -1 1t-1 -1v-6v-6l1 -1q1 0 1 1q0 6 6 6h4
v-12q0 -3 -4 -3h-3q-8 0 -12 9q-1 0 -1 -1q1 -3 2 -5.5t2 -5.5h12h16zM497 520q0 2 -1 2q-6 2 -7 3.5t-3 5.5l-7 33q-1 1 -1 4q0 4 7 5q1 0 1 1t-1 2q-3 0 -11.5 -0.5t-13.5 -0.5t-10 0.5t-10 0.5q1 -2 1 -7q0 -2 -0.5 -4.5t-0.5 -5.5q0 -1 2 -1q1 0 1 1q1 13 14 13h4
q5 0 6 -6l3 -16h-4q-5 0 -7.5 1.5t-4.5 7.5q0 1 -2 1l-1 -1q1 -4 1.5 -5.5t1.5 -5.5q1 -3 1 -5.5t1 -6.5h2h1q-1 11 8 11h5l3 -16q1 -1 1 -4q0 -4 -8 -5l-1 -1l1 -1q0 -1 1 -1q4 0 7 0.5t7 0.5q5 0 7 -0.5t7 -0.5v1zM823 173q-1 0 -1 1l-1 1q-6 1 -7 2.5t-2 6.5l-9 32v4
q0 4 8 5l1 1q0 2 -2 2h-25h-19v-6v-11q-1 0 -0.5 -0.5t1.5 -0.5t1 1q3 13 14 13h4q5 0 6 -6l4 -15h-5q-5 0 -7.5 1t-4.5 8h-1h-2q1 -5 1.5 -6.5t1.5 -5.5q1 -2 1 -5t2 -7h1h1q-1 11 8 11h5l3 -15q0 -2 0.5 -2.5t0.5 -1.5q0 -4 -8 -5v-2v-1q0 -1 1 -1q5 0 7.5 0.5t7.5 0.5
t7 -0.5t6 -0.5zM826 480h-685v-4h685v4zM644 440h-81v-34h11l-15 -23l-15 23h10v34h-62v-34h12l37 -46v-19h-14v-33h81v33h-15v20l37 45h14v34zM399 521q0 2 -3 5t-10 4q-3 4 -4.5 12.5t-3.5 16t-6.5 13.5t-14.5 6q-5 0 -9 -3.5t-4 -6.5q0 -5 5 -5q4 0 4 6t5 6t6.5 -5
t2.5 -11.5t3 -14.5t7 -14q-11 0 -12.5 -6.5t-8.5 -6.5q-5 0 -5 4q0 2 1 2.5t1 2.5q0 4 -5 4t-5 -6q0 -11 13 -11t16 6t11 6q5 -7 12 -7q4 0 4 3zM725 192q0 15 -11 26.5t-25 11.5q-7 0 -14 -5t-7 -17q0 -15 11 -26.5t24 -11.5q7 0 14.5 5t7.5 17zM292 536q0 11 -13 18
q4 4 4 9t-5.5 10t-14.5 5q-5 0 -9 -3.5t-4 -8.5q0 -6 5 -6t5 3t-1.5 3.5t-1.5 2.5q0 6 6 6q10 0 10 -12q0 -3 -0.5 -4t-0.5 -2h-9q-7 0 -7 -6t7 -6t12 5q6 -6 6 -15q0 -8 -3.5 -11t-8.5 -3q-12 0 -12 9q0 3 2 3q1 0 2 -1t3 -1q5 0 5 5t-8 5q-9 0 -9 -10q0 -13 17 -13
q11 0 17 5t6 13zM620 225q0 3 -1 3h-15h-14v-1v-1q0 -1 1 -1q7 -1 8 -2.5t2 -6.5l5 -21q2 -8 2 -10q0 -10 -13 -10q-8 0 -13 6.5t-7 15.5l-4 19q0 2 -0.5 2.5t-0.5 1.5q0 4 8 5v2v1h-12h-11v-1v-1q0 -1 1 -1q7 -1 8.5 -2.5t2.5 -6.5l5 -20q2 -8 7 -17t19 -9q12 0 16.5 5.5
t4.5 10.5q0 2 -2 8l-5 22q0 2 -0.5 2.5t-0.5 1.5q0 4 9 5zM455 341h-14v65h14v34h-96q-22 0 -34.5 -11.5t-12.5 -28.5t12.5 -28.5t34.5 -11.5h30v-19h-15v-33h81v33zM826 276h-685v-4h685v4zM694 48v1q-6 0 -6 5l-1 20q0 5 6 5v2v1q-2 0 -2.5 -0.5t-2.5 -0.5t-2.5 0.5
t-2.5 0.5l-24 -25v17q0 2 0.5 3.5t5.5 1.5v2v1q-2 0 -4 -0.5t-4 -0.5t-3.5 0.5t-3.5 0.5v-1v-2q5 0 5.5 -1.5t0.5 -3.5v-28h2h1l25 27l1 -19q0 -5 -5 -5q-1 0 -1 -1t1 -1h6h8v1zM203 520q0 1 -1 2q-7 2 -8 3.5t-3 5.5l-7 33q-1 1 -1 4q0 4 8 5v1v2q-5 0 -7 -0.5t-6 -0.5
t-6.5 0.5t-7.5 0.5q-20 0 -20 -13q0 -6 6 -10.5t13 -6.5l-8 -16q-5 -8 -14 -9q-1 0 -1 -2q0 -1 2 -1q3 0 7.5 0.5t10.5 0.5l12 23q1 3 5 3l4 -14v-4q0 -4 -8 -5v-1v-1q0 -1 1 -1q4 0 7 0.5t8 0.5q4 0 6.5 -0.5t6.5 -0.5q1 0 1 1zM798 -88q0 13 -10 13t-10 -12q0 -13 10 -13
t10 12zM521 175q-9 1 -9 9l-7 32q-1 1 -1 3q0 5 9 6q1 0 1 1q0 2 -2 2h-5h-9l-30 -40l-4 28q-2 8 7 9q1 0 1 1q0 2 -2 2t-4.5 -0.5t-6.5 -0.5q-3 0 -5 0.5t-5 0.5v-1v-2q8 -1 10 -9l8 -45q0 -1 1 -1h2l31 44l5 -30q2 -8 -6 -9q-1 0 -1 -2l1 -2q2 0 5 0.5t7 0.5q3 0 5 -0.5
t4 -0.5q1 0 1 2zM632 48v1q-5 0 -5.5 1.5t-0.5 3.5v20q0 2 0.5 3.5t5.5 1.5v2v1q-3 0 -8 -0.5t-8 -0.5q-4 0 -6.5 0.5t-5.5 0.5q-1 -3 -1.5 -5t-0.5 -5v-1q1 0 1 1q2 7 10 7h2q4 0 4 -4v-9h-4q-5 0 -6 5l-1 1v-1v-7v-6h1q1 5 2.5 5.5t3.5 0.5h4v-11q0 -4 -4 -4h-2
q-9 0 -12 9h-1q-1 0 -1 -1q3 -4 4 -11q4 1 12 1h9t8 -1v2zM582 81q-3 1 -4 0.5t-3 -0.5t-3.5 0.5t-4.5 0.5v-1v-2q2 0 2 -3v-2l-9 -19l-6 9l5 9q1 6 6 6l1 2l-1 1q-3 0 -3.5 -0.5t-3.5 -0.5q-2 0 -3 0.5t-4 0.5q-2 0 -2.5 -0.5t-2.5 -0.5t-3.5 0.5t-3.5 0.5v-1q0 -2 1 -2
q4 0 7 -6l3 -5l-7 -13l-8 18v3q0 3 2 3q1 0 1 2l-1 1q-2 0 -3 -0.5t-3 -0.5t-2.5 0.5t-2.5 0.5v-1v-2q3 0 3.5 -1.5t2.5 -4.5l12 -27h1h1l7 15l9 -15h1l12 27q4 6 6 6q1 0 1 2zM826 132h-685v-4h685v4zM277 341h-14v65h14v34h-141v-62h41v28h33v-20h-24v-24h24v-21h-33v28
h-41v-61h141v33zM413 173v1l-1 1q-7 1 -8 2.5t-2 6.5l-8 32v4q0 4 7 5v1v2h-15q-5 0 -8.5 0.5t-6.5 0.5q-9 0 -17 -6t-8 -17q0 -16 11 -25t24 -9h15h9t8 -1v2zM479 81q-2 1 -3.5 0.5t-4.5 -0.5t-4.5 0.5t-3.5 0.5q-1 0 -1 -1q0 -2 1 -2q2 0 2 -2t-1 -3l-6 -9l-6 9q-1 1 -1 2
q0 3 4 3v2v1q-2 0 -4 -0.5t-4 -0.5t-3 0.5t-3 0.5v-1v-2q4 0 8 -5l8 -12v-8q0 -5 -5 -5v-1v-2q2 0 3.5 0.5t5.5 0.5q2 0 4 -0.5t4 -0.5q1 0 1 2l-1 1q-5 0 -5 5v8l8 12q2 5 7 5v2zM605 -82q0 6 -7 6h-4v-2v-10h2q9 0 9 6zM305 175q-7 1 -8 2.5t-2 6.5l-8 32v4q0 4 7 5
q1 0 1 1q0 2 -2 2h-12h-14q-19 0 -19 -12q0 -6 5.5 -11t12.5 -6l-9 -16q-3 -7 -12 -10q-1 0 -1 -1v-2h1q4 1 8 1.5t10 0.5l12 22q2 3 6 3l3 -13v-4q0 -4 -7 -5q-1 0 -1 -2l1 -2q5 0 7.5 0.5t7.5 0.5t7 -0.5t6 -0.5l1 2zM557 -81l-5 -11h10zM424 64q0 8 -5.5 13t-14.5 5
t-14 -5t-5 -13t5 -13t14 -5t14.5 5t5.5 13zM523 -81q0 6 -7 6h-3v-3v-9h4q6 0 6 6zM364 48l-1 1q-5 0 -5 5v20q0 5 5 5q1 0 1 2l-1 1q-2 0 -4 -0.5t-5 -0.5t-4.5 0.5t-4.5 0.5q-12 0 -12 -9q0 -6 8 -9l-8 -11q-2 -4 -7 -4v-1v-1h6h6l6 11q2 3 3 4t4 1v-9q0 -5 -5 -5
q-1 0 -1 -1q0 -2 1 -2q2 0 3.5 0.5t4.5 0.5q4 0 5.5 -0.5t3.5 -0.5q1 0 1 2zM202 215q2 2 0 2q-3 5 -6.5 9t-11.5 4q-14 0 -14 -18v-5q-3 10 -9.5 16.5t-14.5 6.5q-5 0 -7 -3.5t-2 -8.5v-1h3q0 6 8 6q10 0 15 -9.5t9 -23.5l1 -6v-4q0 -4 -7 -5v-2v-1q0 -1 1 -1q5 0 7.5 0.5
t7.5 0.5q4 0 6 -0.5t6 -0.5l1 2l-1 2q-7 1 -8 2.5t-2 6.5l-2 8q-3 9 -3 17q0 13 9 13q5 0 7.5 -2.5l4.5 -4.5h2v0zM308 48v1q-6 0 -6 5v20q0 5 6 5v2v1q-2 0 -4 -0.5t-5 -0.5t-4.5 0.5t-4.5 0.5v-1v-2q5 0 5.5 -1.5t0.5 -3.5v-10q-3 0 -4 3l-8 8q-2 2 -2 3t3 1v2v1
q-2 0 -3.5 -0.5t-3.5 -0.5t-3 0.5t-3 0.5v-1v-2q4 0 5 -1l3 -3l9 -9l-13 -13q-4 -4 -7 -4l-1 -1q0 -2 1 -2q2 0 3.5 0.5t4.5 0.5q2 0 4.5 -0.5t5.5 -0.5v2v1q-3 0 -3 2q0 1 1 2l7 8q2 2 4 2v-9q0 -2 -0.5 -3.5t-5.5 -1.5v-1v-2q3 0 4.5 0.5t4.5 0.5t5 -0.5t4 -0.5v2z
M439 -88q0 13 -10 13t-10 -12q0 -13 10 -13t10 12zM393 -82q0 6 -7 6h-4v-2v-10h3q8 0 8 6zM683 535q0 -14 -12 -14q-9 0 -16.5 12t-7.5 27t12 15q9 0 16.5 -12t7.5 -28zM565 553q-3 -4 -7 -4t-4 2q0 3 4 3q5 0 7 -1zM713 188q0 -15 -10 -15q-11 0 -17.5 12t-6.5 28
q0 14 10 14q11 0 17.5 -12t6.5 -27zM270 553q-3 -4 -7 -4q-3 0 -3 2q0 3 3 3q5 0 7 -1zM378 384q-13 0 -13 11t13 11h11v-22h-11zM171 548q-9 0 -12 5t-3 10q0 9 8 9q7 0 9 -6l3 -18h-5zM554 77q0 -2 -3 -6q-1 1 -1 3q0 1 -1 2q0 3 2 3q3 0 3 -2zM392 182q0 -5 -1 -5.5
t-3 -0.5h-5q-11 0 -18.5 9.5t-7.5 21.5q0 18 14 18l6 -1q2 0 3 -0.5t3 -5.5l9 -36v0zM275 201q-9 0 -12 4.5t-3 9.5q0 10 8 10q7 0 7 -7l5 -17h-5zM416 64q0 -16 -12 -16t-12 16q0 7 3 12t9 5q7 0 9.5 -5t2.5 -12zM348 65q-8 0 -8 8q0 6 7 6q4 0 4 -4v-10h-3z" />
    <glyph glyph-name="Ograve" unicode="&#xd2;" horiz-adv-x="340" 
d="M131 858l-61 142h113l20 -142h-72zM317 137q0 -30 -11.5 -57t-31.5 -47t-47 -31.5t-57 -11.5t-57 11.5t-47 31.5t-31.5 47t-11.5 57v526q0 30 11.5 57t31.5 47t47 31.5t57 11.5t57 -11.5t47 -31.5t31.5 -47t11.5 -57v-526v0zM194 660q0 10 -7 17t-17 7t-17 -7t-7 -17
v-520q0 -10 7 -17t17 -7t17 7t7 17v520z" />
    <glyph glyph-name="Uacute" unicode="&#xda;" horiz-adv-x="329" 
d="M201 858h-72l20 142h113zM304 137q0 -30 -10 -57t-28 -47t-43 -31.5t-56 -11.5q-30 0 -56 11.5t-45 31.5t-30 47t-11 57v663h118v-660q0 -10 7 -17t17 -7q11 0 17.5 7t6.5 17v660h113v-663v0z" />
    <glyph glyph-name="Ucircumflex" unicode="&#xdb;" horiz-adv-x="329" 
d="M226 858l-61 69l-61 -69h-93l98 142h113l97 -142h-93zM304 137q0 -30 -10 -57t-28 -47t-43 -31.5t-56 -11.5q-30 0 -56 11.5t-45 31.5t-30 47t-11 57v663h118v-660q0 -10 7 -17t17 -7q11 0 17.5 7t6.5 17v660h113v-663v0z" />
    <glyph glyph-name="Ugrave" unicode="&#xd9;" horiz-adv-x="329" 
d="M131 858l-61 142h113l20 -142h-72zM304 137q0 -30 -10 -57t-28 -47t-43 -31.5t-56 -11.5q-30 0 -56 11.5t-45 31.5t-30 47t-11 57v663h118v-660q0 -10 7 -17t17 -7q11 0 17.5 7t6.5 17v660h113v-663v0z" />
    <glyph glyph-name="dotlessi" unicode="&#x131;" 
d="M27 0v590h113v-590h-113z" />
    <glyph glyph-name="circumflex" unicode="&#x2c6;" horiz-adv-x="338" 
d="M230 658l-61 69l-61 -69h-93l98 142h113l97 -142h-93z" />
    <glyph glyph-name="tilde" unicode="&#x2dc;" horiz-adv-x="337" 
d="M322 810q0 -54 -28 -84t-79 -30q-18 0 -31.5 5.5t-24.5 12.5t-21 12.5t-21 5.5q-19 0 -30 -8.5t-11 -27.5h-61q0 54 28.5 84t79.5 30q18 0 31 -5.5t24 -12l21 -12t22 -5.5q19 0 30 8.5t11 26.5h60v0z" />
    <glyph glyph-name="macron" unicode="&#xaf;" horiz-adv-x="299" 
d="M27 713v87h245v-87h-245z" />
    <glyph glyph-name="breve" unicode="&#x2d8;" horiz-adv-x="349" 
d="M296 800q0 -25 -9.5 -47t-26 -38.5t-39 -26t-47.5 -9.5t-47 9.5t-38.5 26t-26 38.5t-9.5 47h63q0 -23 16.5 -40.5t41.5 -17.5q24 0 41.5 17.5t17.5 40.5h63v0z" />
    <glyph glyph-name="dotaccent" unicode="&#x2d9;" 
d="M27 667v133h113v-133h-113z" />
    <glyph glyph-name="ring" unicode="&#x2da;" horiz-adv-x="232" 
d="M197 729q0 -34 -23.5 -57.5t-57.5 -23.5t-57.5 23.5t-23.5 57.5t23.5 57.5t57.5 23.5t57.5 -23.5t23.5 -57.5zM155 729q0 16 -11.5 27.5t-27.5 11.5q-17 0 -28 -11.5t-11 -27.5t11 -27.5t28 -11.5q16 0 27.5 11.5t11.5 27.5z" />
    <glyph glyph-name="cedilla" unicode="&#xb8;" horiz-adv-x="209" 
d="M179 -154q0 -30 -20 -51.5t-51 -21.5t-51 21.5t-20 51.5v21h59v-19q0 -12 12 -12q5 0 8.5 3.5t3.5 8.5v53q0 5 -3.5 8.5t-8.5 3.5t-8.5 -3.5t-3.5 -8.5l-59 2l6 97h58l-4 -47q16 13 34 13q20 0 34 -15t14 -35v-70v0z" />
    <glyph glyph-name="quotedbl" unicode="&#x22;" horiz-adv-x="314" 
d="M203 588h-34l48 91h-43v121h113v-121zM56 588h-35l49 91h-43v121h113v-121z" />
    <glyph glyph-name="exclam" unicode="!" horiz-adv-x="183" 
d="M122 185h-62l-30 368v247h123v-247zM35 0v121h113v-121h-113z" />
    </font>
</defs>
</svg>
